M48
; DRILL file KiCad 10.0.1 date 2026-04-23T18:37:45
; FORMAT={-:-/ absolute / metric / decimal}
; #@! TF.CreationDate,2026-04-23T18:37:45+05:30
; #@! TF.GenerationSoftware,Kicad,Pcbnew,10.0.1
; #@! TF.FileFunction,Plated,1,4,PTH
FMAT,2
METRIC
; #@! TA.AperFunction,Plated,PTH,ViaDrill
T1C0.300
; #@! TA.AperFunction,Plated,PTH,ComponentDrill
T2C0.600
; #@! TA.AperFunction,Plated,PTH,ComponentDrill
T3C1.020
; #@! TA.AperFunction,Plated,PTH,ComponentDrill
T4C1.100
; #@! TA.AperFunction,Plated,PTH,ComponentDrill
T5C1.800
; #@! TA.AperFunction,Plated,PTH,ComponentDrill
T6C2.200
%
G90
G05
T1
X178.926Y-92.544
X178.926Y-102.314
X179.796Y-123.534
X180.236Y-169.584
X180.326Y-124.314
X181.006Y-122.724
X181.375Y-124.043
X182.316Y-146.244
X182.356Y-148.63
X182.506Y-136.234
X182.606Y-111.094
X182.836Y-96.184
X183.806Y-102.614
X184.911Y-100.629
X187.31Y-149.01
X187.36Y-114.894
X187.606Y-140.024
X188.246Y-120.124
X189.226Y-164.264
X189.267Y-120.124
X190.436Y-122.774
X191.216Y-123.194
X191.806Y-97.484
X191.934Y-123.69
X192.696Y-123.934
X195.496Y-104.084
X195.516Y-102.064
X195.636Y-98.174
X195.676Y-100.964
X196.076Y-95.503
X197.546Y-125.814
X197.756Y-121.434
X199.216Y-94.204
X200.036Y-120.434
X201.062Y-119.518
X201.726Y-121.374
X202.016Y-124.354
X202.376Y-129.084
X203.066Y-109.984
X203.746Y-127.033
X203.746Y-127.924
X203.946Y-125.534
X203.966Y-124.694
X203.986Y-121.034
X206.616Y-128.284
X207.036Y-117.904
X207.036Y-132.724
X207.124Y-134.034
X207.18Y-148.844
X207.18Y-153.104
X207.506Y-121.104
X207.613Y-112.384
X207.816Y-120.244
X207.903Y-125.876
X208.156Y-125.117
X208.292Y-112.807
X208.676Y-136.574
X208.72Y-86.334
X208.876Y-120.414
X208.89Y-127.529
X208.976Y-122.594
X210.116Y-92.034
X210.306Y-151.414
X210.926Y-115.844
X211.126Y-138.494
X211.546Y-101.334
X211.626Y-155.134
X211.666Y-111.134
X212.206Y-122.274
X212.386Y-119.424
X212.433Y-120.226
X212.646Y-102.904
X212.866Y-114.094
X213.146Y-110.484
X213.286Y-132.894
X213.326Y-123.584
X213.346Y-124.894
X213.956Y-99.504
X214.056Y-124.194
X214.14Y-133.871
X214.577Y-128.054
X214.676Y-103.584
X214.936Y-133.784
X216.034Y-126.116
X216.794Y-126.876
X217.476Y-120.031
X218.106Y-120.844
X218.136Y-137.129
X218.536Y-138.064
X218.911Y-156.139
X219.176Y-86.884
X219.536Y-118.604
X220.386Y-157.384
X221.996Y-98.404
X223.181Y-108.769
X223.186Y-158.674
X223.506Y-130.454
X223.706Y-119.424
X224.676Y-165.154
X227.93Y-170.224
X227.986Y-164.084
X228.296Y-113.404
X228.306Y-100.704
X228.392Y-146.25
X228.436Y-93.204
X228.576Y-123.534
X228.576Y-134.124
X229.578Y-126.686
X231.956Y-143.764
X231.956Y-145.004
X232.371Y-108.519
X233.256Y-111.544
X233.346Y-122.764
X233.346Y-123.564
X233.346Y-124.364
T2
X209.8Y-115.286
X209.8Y-137.287
T3
X185.65Y-154.45
X185.65Y-156.99
X185.65Y-159.53
X188.19Y-154.45
X188.19Y-156.99
X188.19Y-159.53
X190.73Y-154.45
X190.73Y-156.99
X190.73Y-159.53
T4
X187.73Y-166.98
X187.73Y-169.52
X187.73Y-172.06
X190.27Y-166.98
X190.27Y-169.52
X190.27Y-172.06
X192.81Y-166.98
X192.81Y-169.52
X192.81Y-172.06
X195.35Y-166.98
X195.35Y-169.52
X195.35Y-172.06
X197.89Y-166.98
X197.89Y-169.52
X197.89Y-172.06
X200.43Y-166.98
X200.43Y-169.52
X200.43Y-172.06
X202.97Y-166.98
X202.97Y-169.52
X202.97Y-172.06
X205.51Y-166.98
X205.51Y-169.52
X205.51Y-172.06
X208.05Y-166.98
X208.05Y-169.52
X208.05Y-172.06
X210.59Y-166.98
X210.59Y-169.52
X210.59Y-172.06
X213.13Y-166.98
X213.13Y-169.52
X213.13Y-172.06
X215.67Y-166.98
X215.67Y-169.52
X215.67Y-172.06
X218.21Y-166.98
X218.21Y-169.52
X218.21Y-172.06
X220.75Y-166.98
X220.75Y-169.52
X220.75Y-172.06
X223.29Y-166.98
X223.29Y-169.52
X223.29Y-172.06
T5
X190.37Y-111.286
X190.37Y-141.286
X220.37Y-111.286
X220.37Y-141.286
T6
X178.44Y-85.65
X178.73Y-177.64
X232.49Y-177.64
X232.52Y-85.65
M30
