%TF.GenerationSoftware,KiCad,Pcbnew,10.0.1*%
%TF.CreationDate,2026-04-23T18:37:34+05:30*%
%TF.ProjectId,CarrierB,43617272-6965-4724-922e-6b696361645f,rev?*%
%TF.SameCoordinates,Original*%
%TF.FileFunction,Paste,Top*%
%TF.FilePolarity,Positive*%
%FSLAX46Y46*%
G04 Gerber Fmt 4.6, Leading zero omitted, Abs format (unit mm)*
G04 Created by KiCad (PCBNEW 10.0.1) date 2026-04-23 18:37:34*
%MOMM*%
%LPD*%
G01*
G04 APERTURE LIST*
G04 Aperture macros list*
%AMRoundRect*
0 Rectangle with rounded corners*
0 $1 Rounding radius*
0 $2 $3 $4 $5 $6 $7 $8 $9 X,Y pos of 4 corners*
0 Add a 4 corners polygon primitive as box body*
4,1,4,$2,$3,$4,$5,$6,$7,$8,$9,$2,$3,0*
0 Add four circle primitives for the rounded corners*
1,1,$1+$1,$2,$3*
1,1,$1+$1,$4,$5*
1,1,$1+$1,$6,$7*
1,1,$1+$1,$8,$9*
0 Add four rect primitives between the rounded corners*
20,1,$1+$1,$2,$3,$4,$5,0*
20,1,$1+$1,$4,$5,$6,$7,0*
20,1,$1+$1,$6,$7,$8,$9,0*
20,1,$1+$1,$8,$9,$2,$3,0*%
G04 Aperture macros list end*
%ADD10RoundRect,0.150000X-0.700000X0.150000X-0.700000X-0.150000X0.700000X-0.150000X0.700000X0.150000X0*%
%ADD11RoundRect,0.250000X-1.100000X0.250000X-1.100000X-0.250000X1.100000X-0.250000X1.100000X0.250000X0*%
%ADD12RoundRect,0.250000X0.250000X1.100000X-0.250000X1.100000X-0.250000X-1.100000X0.250000X-1.100000X0*%
%ADD13RoundRect,0.250000X0.650000X1.650000X-0.650000X1.650000X-0.650000X-1.650000X0.650000X-1.650000X0*%
%ADD14R,2.300000X2.200000*%
%ADD15RoundRect,0.150000X0.700000X-0.150000X0.700000X0.150000X-0.700000X0.150000X-0.700000X-0.150000X0*%
%ADD16RoundRect,0.250000X1.100000X-0.250000X1.100000X0.250000X-1.100000X0.250000X-1.100000X-0.250000X0*%
%ADD17R,1.150000X0.254000*%
%ADD18R,2.100600X1.399500*%
G04 APERTURE END LIST*
D10*
%TO.C,CAN3*%
X180615786Y-136284214D03*
X180615786Y-137534214D03*
X180615786Y-138784214D03*
X180615786Y-140034214D03*
D11*
X177415786Y-134434214D03*
X177415786Y-141884214D03*
%TD*%
%TO.C,TELEM2*%
X177415786Y-119249214D03*
X177415786Y-109299214D03*
D10*
X180615786Y-117399214D03*
X180615786Y-116149214D03*
X180615786Y-114899214D03*
X180615786Y-113649214D03*
X180615786Y-112399214D03*
X180615786Y-111149214D03*
%TD*%
D12*
%TO.C,POWER2*%
X223760000Y-91650000D03*
X221760000Y-91650000D03*
X219760000Y-91650000D03*
X217760000Y-91650000D03*
X215760000Y-91650000D03*
X213760000Y-91650000D03*
D13*
X226110000Y-87200000D03*
X211410000Y-87200000D03*
%TD*%
D14*
%TO.C,C8*%
X203280000Y-90150000D03*
X203280000Y-95150000D03*
%TD*%
%TO.C,C10*%
X207620000Y-90130000D03*
X207620000Y-95130000D03*
%TD*%
D15*
%TO.C,GPS2*%
X230220000Y-113305000D03*
X230220000Y-112055000D03*
X230220000Y-110805000D03*
X230220000Y-109555000D03*
X230220000Y-108305000D03*
X230220000Y-107055000D03*
D16*
X233420000Y-115155000D03*
X233420000Y-105205000D03*
%TD*%
D15*
%TO.C,ADC1*%
X230160000Y-168050000D03*
X230160000Y-166800000D03*
X230160000Y-165550000D03*
D16*
X233360000Y-169900000D03*
X233360000Y-163700000D03*
%TD*%
D14*
%TO.C,C12*%
X203225786Y-104054214D03*
X203225786Y-99054214D03*
%TD*%
D10*
%TO.C,I2C3*%
X180550000Y-91300000D03*
X180550000Y-92550000D03*
X180550000Y-93800000D03*
X180550000Y-95050000D03*
D11*
X177350000Y-89450000D03*
X177350000Y-96900000D03*
%TD*%
D15*
%TO.C,USB1*%
X230160000Y-159110000D03*
X230160000Y-157860000D03*
X230160000Y-156610000D03*
X230160000Y-155360000D03*
X230160000Y-154110000D03*
X230160000Y-152860000D03*
D16*
X233360000Y-160960000D03*
X233360000Y-151010000D03*
%TD*%
D14*
%TO.C,C5*%
X207645786Y-104074214D03*
X207645786Y-99074214D03*
%TD*%
D10*
%TO.C,CAN2*%
X180610000Y-146130000D03*
X180610000Y-147380000D03*
X180610000Y-148630000D03*
X180610000Y-149880000D03*
D11*
X177410000Y-144280000D03*
X177410000Y-151730000D03*
%TD*%
D17*
%TO.C,H2*%
X205330100Y-116536400D03*
X210470100Y-116536400D03*
X205335200Y-117034400D03*
X210474600Y-117035500D03*
X205333200Y-117532500D03*
X210478500Y-117531000D03*
X205332900Y-118031900D03*
X210476700Y-118027800D03*
X205333900Y-118534100D03*
X210477900Y-118529700D03*
X205333900Y-119033900D03*
X210477900Y-119029900D03*
X205333900Y-119535100D03*
X210477900Y-119531000D03*
X205333900Y-120035000D03*
X210477900Y-120030900D03*
X205333900Y-120535100D03*
X210477900Y-120531000D03*
X205335000Y-121034900D03*
X210479000Y-121030900D03*
X205333900Y-121535100D03*
X210477900Y-121531000D03*
X205333900Y-122036200D03*
X210477900Y-122032200D03*
X205333900Y-122535100D03*
X210477900Y-122531000D03*
X205332900Y-123033900D03*
X210474600Y-123028600D03*
X205333900Y-123535100D03*
X210476900Y-123579800D03*
X205332900Y-124029600D03*
X210477900Y-124030900D03*
X205333900Y-124534100D03*
X210476900Y-124525700D03*
X205332900Y-125032900D03*
X210477900Y-125029900D03*
X205333900Y-125534100D03*
X210476900Y-125528700D03*
X205333900Y-126032900D03*
X210477900Y-126029900D03*
X205333900Y-126535100D03*
X210477900Y-126528700D03*
X205333900Y-127032900D03*
X210477900Y-127030900D03*
X205333900Y-127534000D03*
X210477900Y-127528700D03*
X205333900Y-128034900D03*
X210477900Y-128029900D03*
X205333900Y-128534000D03*
X210477900Y-128531000D03*
X205333900Y-129033900D03*
X210477900Y-129029900D03*
X205333900Y-129532500D03*
X210477900Y-129530000D03*
X205333900Y-130034900D03*
X210477900Y-130028600D03*
X205335000Y-130531800D03*
X210477900Y-130531000D03*
X205333900Y-130983900D03*
X210479000Y-131027800D03*
X205333900Y-131534000D03*
X210477900Y-131530000D03*
X205333900Y-132033900D03*
X210477900Y-132029800D03*
X205332900Y-132533000D03*
X210477900Y-132530000D03*
X205331700Y-133032900D03*
X210476900Y-133028800D03*
X205333900Y-133534000D03*
X210475700Y-133528700D03*
X205333900Y-134035200D03*
X210477900Y-134029800D03*
X205333900Y-134531700D03*
X210477900Y-134531000D03*
X205333900Y-135033900D03*
X210477900Y-135027800D03*
X205333900Y-135532800D03*
X210477900Y-135530000D03*
X205333900Y-136033900D03*
X210477900Y-136028800D03*
D18*
X207899800Y-114275200D03*
X207900100Y-138286400D03*
%TD*%
D15*
%TO.C,GPS1*%
X230170000Y-100695000D03*
X230170000Y-99445000D03*
X230170000Y-98195000D03*
X230170000Y-96945000D03*
X230170000Y-95695000D03*
X230170000Y-94445000D03*
X230170000Y-93195000D03*
X230170000Y-91945000D03*
D16*
X233370000Y-102545000D03*
X233370000Y-90095000D03*
%TD*%
D15*
%TO.C,I2C1*%
X230280000Y-123515000D03*
X230280000Y-122265000D03*
X230280000Y-121015000D03*
X230280000Y-119765000D03*
D16*
X233480000Y-125365000D03*
X233480000Y-117915000D03*
%TD*%
D15*
%TO.C,TELEM1*%
X230300000Y-146260000D03*
X230300000Y-145010000D03*
X230300000Y-143760000D03*
X230300000Y-142510000D03*
X230300000Y-141260000D03*
X230300000Y-140010000D03*
D16*
X233500000Y-148110000D03*
X233500000Y-138160000D03*
%TD*%
D12*
%TO.C,POWER1*%
X197020000Y-91610000D03*
X195020000Y-91610000D03*
X193020000Y-91610000D03*
X191020000Y-91610000D03*
X189020000Y-91610000D03*
X187020000Y-91610000D03*
D13*
X199370000Y-87160000D03*
X184670000Y-87160000D03*
%TD*%
D10*
%TO.C,I2C2*%
X180560000Y-101125000D03*
X180560000Y-102375000D03*
X180560000Y-103625000D03*
X180560000Y-104875000D03*
D11*
X177360000Y-99275000D03*
X177360000Y-106725000D03*
%TD*%
D15*
%TO.C,CAN1*%
X230330000Y-133690000D03*
X230330000Y-132440000D03*
X230330000Y-131190000D03*
X230330000Y-129940000D03*
D16*
X233530000Y-135540000D03*
X233530000Y-128090000D03*
%TD*%
M02*
