%TF.GenerationSoftware,KiCad,Pcbnew,10.0.1*%
%TF.CreationDate,2026-04-23T18:37:34+05:30*%
%TF.ProjectId,CarrierB,43617272-6965-4724-922e-6b696361645f,rev?*%
%TF.SameCoordinates,Original*%
%TF.FileFunction,Soldermask,Bot*%
%TF.FilePolarity,Negative*%
%FSLAX46Y46*%
G04 Gerber Fmt 4.6, Leading zero omitted, Abs format (unit mm)*
G04 Created by KiCad (PCBNEW 10.0.1) date 2026-04-23 18:37:34*
%MOMM*%
%LPD*%
G01*
G04 APERTURE LIST*
G04 Aperture macros list*
%AMRoundRect*
0 Rectangle with rounded corners*
0 $1 Rounding radius*
0 $2 $3 $4 $5 $6 $7 $8 $9 X,Y pos of 4 corners*
0 Add a 4 corners polygon primitive as box body*
4,1,4,$2,$3,$4,$5,$6,$7,$8,$9,$2,$3,0*
0 Add four circle primitives for the rounded corners*
1,1,$1+$1,$2,$3*
1,1,$1+$1,$4,$5*
1,1,$1+$1,$6,$7*
1,1,$1+$1,$8,$9*
0 Add four rect primitives between the rounded corners*
20,1,$1+$1,$2,$3,$4,$5,0*
20,1,$1+$1,$4,$5,$6,$7,0*
20,1,$1+$1,$6,$7,$8,$9,0*
20,1,$1+$1,$8,$9,$2,$3,0*%
G04 Aperture macros list end*
%ADD10R,0.889000X0.711200*%
%ADD11R,0.660400X0.508000*%
%ADD12RoundRect,0.102000X-0.775000X1.100000X-0.775000X-1.100000X0.775000X-1.100000X0.775000X1.100000X0*%
%ADD13C,2.600000*%
%ADD14C,3.800000*%
%ADD15O,2.101600X2.101600*%
%ADD16O,0.901600X0.901600*%
%ADD17RoundRect,0.102000X-0.685000X0.685000X-0.685000X-0.685000X0.685000X-0.685000X0.685000X0.685000X0*%
%ADD18C,1.574000*%
%ADD19R,1.650000X1.650000*%
%ADD20C,1.650000*%
%ADD21RoundRect,0.102000X0.775000X-1.100000X0.775000X1.100000X-0.775000X1.100000X-0.775000X-1.100000X0*%
%ADD22RoundRect,0.225000X0.250000X-0.225000X0.250000X0.225000X-0.250000X0.225000X-0.250000X-0.225000X0*%
%ADD23RoundRect,0.125000X-0.375000X0.125000X-0.375000X-0.125000X0.375000X-0.125000X0.375000X0.125000X0*%
%ADD24RoundRect,0.250000X-0.600000X0.350000X-0.600000X-0.350000X0.600000X-0.350000X0.600000X0.350000X0*%
%ADD25R,2.200000X2.300000*%
%ADD26RoundRect,0.225000X-0.250000X0.225000X-0.250000X-0.225000X0.250000X-0.225000X0.250000X0.225000X0*%
%ADD27RoundRect,0.125000X0.375000X-0.125000X0.375000X0.125000X-0.375000X0.125000X-0.375000X-0.125000X0*%
%ADD28RoundRect,0.250000X0.600000X-0.350000X0.600000X0.350000X-0.600000X0.350000X-0.600000X-0.350000X0*%
%ADD29RoundRect,0.102000X1.100000X0.775000X-1.100000X0.775000X-1.100000X-0.775000X1.100000X-0.775000X0*%
%ADD30RoundRect,0.250000X-0.250000X-0.475000X0.250000X-0.475000X0.250000X0.475000X-0.250000X0.475000X0*%
%ADD31RoundRect,0.225000X-0.225000X-0.250000X0.225000X-0.250000X0.225000X0.250000X-0.225000X0.250000X0*%
%ADD32RoundRect,0.225000X0.225000X0.250000X-0.225000X0.250000X-0.225000X-0.250000X0.225000X-0.250000X0*%
%ADD33RoundRect,0.102000X-1.100000X-0.775000X1.100000X-0.775000X1.100000X0.775000X-1.100000X0.775000X0*%
%ADD34RoundRect,0.050800X0.762000X0.500000X-0.762000X0.500000X-0.762000X-0.500000X0.762000X-0.500000X0*%
%ADD35RoundRect,0.050800X-0.500000X0.762000X-0.500000X-0.762000X0.500000X-0.762000X0.500000X0.762000X0*%
%ADD36R,1.400000X1.300000*%
G04 APERTURE END LIST*
D10*
%TO.C,FL5*%
X187605786Y-136214214D03*
D11*
X187135886Y-137065114D03*
D10*
X187605786Y-137916014D03*
D11*
X188075686Y-137065114D03*
%TD*%
D12*
%TO.C,D7*%
X184375786Y-136234214D03*
X184375786Y-140334214D03*
%TD*%
%TO.C,D10*%
X184645786Y-111084214D03*
X184645786Y-115184214D03*
%TD*%
D11*
%TO.C,FL8*%
X187865786Y-111924214D03*
D10*
X187395886Y-112775114D03*
D11*
X186925986Y-111924214D03*
D10*
X187395886Y-111073314D03*
%TD*%
D13*
%TO.C,MH1*%
X178730000Y-177640000D03*
D14*
X178730000Y-177640000D03*
%TD*%
D13*
%TO.C,MH2*%
X232490000Y-177640000D03*
D14*
X232490000Y-177640000D03*
%TD*%
D13*
%TO.C,MH3*%
X232520000Y-85650000D03*
D14*
X232520000Y-85650000D03*
%TD*%
D13*
%TO.C,MH4*%
X178440000Y-85650000D03*
D14*
X178440000Y-85650000D03*
%TD*%
D15*
%TO.C,H2*%
X220370000Y-141286400D03*
X190370000Y-111286400D03*
X190370000Y-141286400D03*
D16*
X209800000Y-115285700D03*
X209800000Y-137287100D03*
D15*
X220370000Y-111286400D03*
%TD*%
D17*
%TO.C,H3*%
X185650000Y-154450000D03*
D18*
X188190000Y-154450000D03*
X190730000Y-154450000D03*
X185650000Y-156990000D03*
X188190000Y-156990000D03*
X190730000Y-156990000D03*
X185650000Y-159530000D03*
X188190000Y-159530000D03*
X190730000Y-159530000D03*
%TD*%
D19*
%TO.C,H1*%
X223290000Y-166980000D03*
D20*
X223290000Y-169520000D03*
X223290000Y-172060000D03*
X220750000Y-166980000D03*
X220750000Y-169520000D03*
X220750000Y-172060000D03*
X218210000Y-166980000D03*
X218210000Y-169520000D03*
X218210000Y-172060000D03*
X215670000Y-166980000D03*
X215670000Y-169520000D03*
X215670000Y-172060000D03*
X213130000Y-166980000D03*
X213130000Y-169520000D03*
X213130000Y-172060000D03*
X210590000Y-166980000D03*
X210590000Y-169520000D03*
X210590000Y-172060000D03*
X208050000Y-166980000D03*
X208050000Y-169520000D03*
X208050000Y-172060000D03*
X205510000Y-166980000D03*
X205510000Y-169520000D03*
X205510000Y-172060000D03*
X202970000Y-166980000D03*
X202970000Y-169520000D03*
X202970000Y-172060000D03*
X200430000Y-166980000D03*
X200430000Y-169520000D03*
X200430000Y-172060000D03*
X197890000Y-166980000D03*
X197890000Y-169520000D03*
X197890000Y-172060000D03*
X195350000Y-166980000D03*
X195350000Y-169520000D03*
X195350000Y-172060000D03*
X192810000Y-166980000D03*
X192810000Y-169520000D03*
X192810000Y-172060000D03*
X190270000Y-166980000D03*
X190270000Y-169520000D03*
X190270000Y-172060000D03*
X187730000Y-166980000D03*
X187730000Y-169520000D03*
X187730000Y-172060000D03*
%TD*%
D10*
%TO.C,FL6*%
X207180000Y-154188200D03*
D11*
X206710100Y-155039100D03*
D10*
X207180000Y-155890000D03*
D11*
X207649900Y-155039100D03*
%TD*%
D10*
%TO.C,FL9*%
X223670000Y-113620000D03*
D11*
X224139900Y-112769100D03*
D10*
X223670000Y-111918200D03*
D11*
X223200100Y-112769100D03*
%TD*%
D21*
%TO.C,D5*%
X226610000Y-134120000D03*
X226610000Y-130020000D03*
%TD*%
D22*
%TO.C,C27*%
X220755786Y-164264214D03*
X220755786Y-162714214D03*
%TD*%
D10*
%TO.C,FL10*%
X223730000Y-99048200D03*
D11*
X223260100Y-99899100D03*
D10*
X223730000Y-100750000D03*
D11*
X224199900Y-99899100D03*
%TD*%
D23*
%TO.C,JTAG_IO1*%
X232050000Y-121960000D03*
X232050000Y-122760000D03*
X232050000Y-123560000D03*
X232050000Y-124360000D03*
X232050000Y-125160000D03*
X232050000Y-125960000D03*
D24*
X234000000Y-120660000D03*
X234000000Y-127260000D03*
%TD*%
D25*
%TO.C,C6*%
X220350000Y-90140000D03*
X225350000Y-90140000D03*
%TD*%
D26*
%TO.C,C19*%
X195355786Y-162724214D03*
X195355786Y-164274214D03*
%TD*%
D22*
%TO.C,C29*%
X210575786Y-164254214D03*
X210575786Y-162704214D03*
%TD*%
D25*
%TO.C,C2*%
X222430000Y-104810000D03*
X227430000Y-104810000D03*
%TD*%
D27*
%TO.C,JTAG_FMU1*%
X178740000Y-125920000D03*
X178740000Y-125120000D03*
X178740000Y-124320000D03*
X178740000Y-123520000D03*
X178740000Y-122720000D03*
X178740000Y-121920000D03*
D28*
X176790000Y-127220000D03*
X176790000Y-120620000D03*
%TD*%
D10*
%TO.C,FL1*%
X227980100Y-168960900D03*
D11*
X228450000Y-168110000D03*
D10*
X227980100Y-167259100D03*
D11*
X227510200Y-168110000D03*
%TD*%
D21*
%TO.C,D11*%
X226670000Y-113580000D03*
X226670000Y-109480000D03*
%TD*%
D10*
%TO.C,FL3*%
X223510000Y-134160000D03*
D11*
X223979900Y-133309100D03*
D10*
X223510000Y-132458200D03*
D11*
X223040100Y-133309100D03*
%TD*%
D29*
%TO.C,D8*%
X203840000Y-158390000D03*
X199740000Y-158390000D03*
%TD*%
D26*
%TO.C,C18*%
X190295786Y-162714214D03*
X190295786Y-164264214D03*
%TD*%
D10*
%TO.C,FL2*%
X223700000Y-123770000D03*
D11*
X224169900Y-122919100D03*
D10*
X223700000Y-122068200D03*
D11*
X223230100Y-122919100D03*
%TD*%
D22*
%TO.C,C31*%
X213185786Y-164254214D03*
X213185786Y-162704214D03*
%TD*%
D26*
%TO.C,C25*%
X208005786Y-162724214D03*
X208005786Y-164274214D03*
%TD*%
%TO.C,C14*%
X192810786Y-162724214D03*
X192810786Y-164274214D03*
%TD*%
D30*
%TO.C,C4*%
X219780000Y-93830000D03*
X221680000Y-93830000D03*
%TD*%
D21*
%TO.C,D12*%
X226700000Y-100750000D03*
X226700000Y-96650000D03*
%TD*%
%TO.C,D4*%
X226860000Y-123640000D03*
X226860000Y-119540000D03*
%TD*%
D31*
%TO.C,C3*%
X219475000Y-101500000D03*
X221025000Y-101500000D03*
%TD*%
D22*
%TO.C,C26*%
X223305786Y-164244214D03*
X223305786Y-162694214D03*
%TD*%
%TO.C,C30*%
X218295786Y-164274214D03*
X218295786Y-162724214D03*
%TD*%
D32*
%TO.C,C9*%
X208720000Y-84910000D03*
X207170000Y-84910000D03*
%TD*%
D26*
%TO.C,C7*%
X219255786Y-105864214D03*
X219255786Y-107414214D03*
%TD*%
D25*
%TO.C,C22*%
X188820000Y-93060000D03*
X183820000Y-93060000D03*
%TD*%
D32*
%TO.C,C11*%
X204890000Y-84940000D03*
X203340000Y-84940000D03*
%TD*%
D26*
%TO.C,C24*%
X191250000Y-103840000D03*
X191250000Y-105390000D03*
%TD*%
D10*
%TO.C,FL4*%
X187310000Y-146270000D03*
D11*
X186840100Y-147120900D03*
D10*
X187310000Y-147971800D03*
D11*
X187779900Y-147120900D03*
%TD*%
D33*
%TO.C,D2*%
X227930000Y-172370000D03*
X232030000Y-172370000D03*
%TD*%
D12*
%TO.C,D6*%
X184300000Y-146280000D03*
X184300000Y-150380000D03*
%TD*%
D22*
%TO.C,C28*%
X215685786Y-164254214D03*
X215685786Y-162704214D03*
%TD*%
D33*
%TO.C,D3*%
X210220000Y-158380000D03*
X214320000Y-158380000D03*
%TD*%
D21*
%TO.C,D9*%
X226420000Y-146250000D03*
X226420000Y-142150000D03*
%TD*%
D10*
%TO.C,FL7*%
X223300000Y-146340000D03*
D11*
X223769900Y-145489100D03*
D10*
X223300000Y-144638200D03*
D11*
X222830100Y-145489100D03*
%TD*%
D26*
%TO.C,C20*%
X200335786Y-162734214D03*
X200335786Y-164284214D03*
%TD*%
D32*
%TO.C,C13*%
X200775000Y-84910000D03*
X199225000Y-84910000D03*
%TD*%
%TO.C,C17*%
X189430000Y-96050000D03*
X187880000Y-96050000D03*
%TD*%
D34*
%TO.C,PSM1*%
X216812000Y-95492900D03*
X216812000Y-97492900D03*
X216817100Y-99503100D03*
X216812300Y-101503100D03*
X216812000Y-103503100D03*
X216812000Y-105503100D03*
D35*
X211061700Y-108433000D03*
X209062200Y-108433000D03*
X207062200Y-108433000D03*
X205062500Y-108430400D03*
X203062200Y-108433000D03*
X201062200Y-108435500D03*
X199062200Y-108430400D03*
D34*
X193812000Y-105503300D03*
X193812000Y-103502800D03*
X193812000Y-101502800D03*
X193809500Y-99502800D03*
X193814600Y-97503100D03*
X193812000Y-95503100D03*
D35*
X200861800Y-88433000D03*
X202862100Y-88433000D03*
X204862100Y-88435500D03*
X206862100Y-88433000D03*
X208862100Y-88433000D03*
X210862000Y-88435500D03*
%TD*%
D26*
%TO.C,C15*%
X197795786Y-162724214D03*
X197795786Y-164274214D03*
%TD*%
D31*
%TO.C,C1*%
X219495000Y-99450000D03*
X221045000Y-99450000D03*
%TD*%
D25*
%TO.C,C23*%
X188500000Y-105040000D03*
X183500000Y-105040000D03*
%TD*%
D22*
%TO.C,C21*%
X205485786Y-164254214D03*
X205485786Y-162704214D03*
%TD*%
D36*
%TO.C,D1*%
X183335786Y-169584214D03*
X183335786Y-172484214D03*
%TD*%
D22*
%TO.C,C16*%
X202915786Y-164274214D03*
X202915786Y-162724214D03*
%TD*%
M02*
