%TF.GenerationSoftware,KiCad,Pcbnew,10.0.1*%
%TF.CreationDate,2026-04-23T18:37:34+05:30*%
%TF.ProjectId,CarrierB,43617272-6965-4724-922e-6b696361645f,rev?*%
%TF.SameCoordinates,Original*%
%TF.FileFunction,Legend,Top*%
%TF.FilePolarity,Positive*%
%FSLAX46Y46*%
G04 Gerber Fmt 4.6, Leading zero omitted, Abs format (unit mm)*
G04 Created by KiCad (PCBNEW 10.0.1) date 2026-04-23 18:37:34*
%MOMM*%
%LPD*%
G01*
G04 APERTURE LIST*
%ADD10C,0.100000*%
%ADD11C,0.150000*%
%ADD12C,0.200000*%
%ADD13C,0.125000*%
%ADD14C,0.158750*%
%ADD15C,0.203000*%
%ADD16C,0.120000*%
%ADD17C,0.500000*%
%ADD18C,0.254000*%
G04 APERTURE END LIST*
D10*
X190245786Y-161434214D02*
X196095786Y-161434214D01*
X190255786Y-163584214D02*
X190245786Y-161434214D01*
X207995786Y-161434214D02*
X202145786Y-161434214D01*
X207995786Y-161434214D02*
X207995786Y-163584214D01*
X210455786Y-161434214D02*
X214055786Y-161434214D01*
X210455786Y-163584214D02*
X210455786Y-161434214D01*
X223215786Y-161434214D02*
X219615786Y-161434214D01*
X223215786Y-161434214D02*
X223215786Y-163584214D01*
D11*
X189624946Y-164888509D02*
X189624946Y-164088509D01*
X189624946Y-164088509D02*
X189891612Y-164659937D01*
X189891612Y-164659937D02*
X190158279Y-164088509D01*
X190158279Y-164088509D02*
X190158279Y-164888509D01*
X190958279Y-164888509D02*
X190501136Y-164888509D01*
X190729708Y-164888509D02*
X190729708Y-164088509D01*
X190729708Y-164088509D02*
X190653517Y-164202794D01*
X190653517Y-164202794D02*
X190577327Y-164278985D01*
X190577327Y-164278985D02*
X190501136Y-164317080D01*
X192154946Y-164948509D02*
X192154946Y-164148509D01*
X192154946Y-164148509D02*
X192421612Y-164719937D01*
X192421612Y-164719937D02*
X192688279Y-164148509D01*
X192688279Y-164148509D02*
X192688279Y-164948509D01*
X193031136Y-164224699D02*
X193069232Y-164186604D01*
X193069232Y-164186604D02*
X193145422Y-164148509D01*
X193145422Y-164148509D02*
X193335898Y-164148509D01*
X193335898Y-164148509D02*
X193412089Y-164186604D01*
X193412089Y-164186604D02*
X193450184Y-164224699D01*
X193450184Y-164224699D02*
X193488279Y-164300890D01*
X193488279Y-164300890D02*
X193488279Y-164377080D01*
X193488279Y-164377080D02*
X193450184Y-164491366D01*
X193450184Y-164491366D02*
X192993041Y-164948509D01*
X192993041Y-164948509D02*
X193488279Y-164948509D01*
X192286850Y-154910414D02*
X192401136Y-154948509D01*
X192401136Y-154948509D02*
X192591612Y-154948509D01*
X192591612Y-154948509D02*
X192667803Y-154910414D01*
X192667803Y-154910414D02*
X192705898Y-154872318D01*
X192705898Y-154872318D02*
X192743993Y-154796128D01*
X192743993Y-154796128D02*
X192743993Y-154719937D01*
X192743993Y-154719937D02*
X192705898Y-154643747D01*
X192705898Y-154643747D02*
X192667803Y-154605652D01*
X192667803Y-154605652D02*
X192591612Y-154567556D01*
X192591612Y-154567556D02*
X192439231Y-154529461D01*
X192439231Y-154529461D02*
X192363041Y-154491366D01*
X192363041Y-154491366D02*
X192324946Y-154453271D01*
X192324946Y-154453271D02*
X192286850Y-154377080D01*
X192286850Y-154377080D02*
X192286850Y-154300890D01*
X192286850Y-154300890D02*
X192324946Y-154224699D01*
X192324946Y-154224699D02*
X192363041Y-154186604D01*
X192363041Y-154186604D02*
X192439231Y-154148509D01*
X192439231Y-154148509D02*
X192629708Y-154148509D01*
X192629708Y-154148509D02*
X192743993Y-154186604D01*
X193086851Y-154948509D02*
X193086851Y-154148509D01*
X193086851Y-154148509D02*
X193391613Y-154148509D01*
X193391613Y-154148509D02*
X193467803Y-154186604D01*
X193467803Y-154186604D02*
X193505898Y-154224699D01*
X193505898Y-154224699D02*
X193543994Y-154300890D01*
X193543994Y-154300890D02*
X193543994Y-154415175D01*
X193543994Y-154415175D02*
X193505898Y-154491366D01*
X193505898Y-154491366D02*
X193467803Y-154529461D01*
X193467803Y-154529461D02*
X193391613Y-154567556D01*
X193391613Y-154567556D02*
X193086851Y-154567556D01*
X193886851Y-154948509D02*
X193886851Y-154148509D01*
X194343994Y-154948509D02*
X194001136Y-154491366D01*
X194343994Y-154148509D02*
X193886851Y-154605652D01*
X194572565Y-154148509D02*
X195029708Y-154148509D01*
X194801136Y-154948509D02*
X194801136Y-154148509D01*
X192344946Y-157428509D02*
X192344946Y-156628509D01*
X192344946Y-156628509D02*
X192535422Y-156628509D01*
X192535422Y-156628509D02*
X192649708Y-156666604D01*
X192649708Y-156666604D02*
X192725898Y-156742794D01*
X192725898Y-156742794D02*
X192763993Y-156818985D01*
X192763993Y-156818985D02*
X192802089Y-156971366D01*
X192802089Y-156971366D02*
X192802089Y-157085652D01*
X192802089Y-157085652D02*
X192763993Y-157238033D01*
X192763993Y-157238033D02*
X192725898Y-157314223D01*
X192725898Y-157314223D02*
X192649708Y-157390414D01*
X192649708Y-157390414D02*
X192535422Y-157428509D01*
X192535422Y-157428509D02*
X192344946Y-157428509D01*
X193144946Y-157009461D02*
X193411612Y-157009461D01*
X193525898Y-157428509D02*
X193144946Y-157428509D01*
X193144946Y-157428509D02*
X193144946Y-156628509D01*
X193144946Y-156628509D02*
X193525898Y-156628509D01*
X194135422Y-157009461D02*
X194249708Y-157047556D01*
X194249708Y-157047556D02*
X194287803Y-157085652D01*
X194287803Y-157085652D02*
X194325899Y-157161842D01*
X194325899Y-157161842D02*
X194325899Y-157276128D01*
X194325899Y-157276128D02*
X194287803Y-157352318D01*
X194287803Y-157352318D02*
X194249708Y-157390414D01*
X194249708Y-157390414D02*
X194173518Y-157428509D01*
X194173518Y-157428509D02*
X193868756Y-157428509D01*
X193868756Y-157428509D02*
X193868756Y-156628509D01*
X193868756Y-156628509D02*
X194135422Y-156628509D01*
X194135422Y-156628509D02*
X194211613Y-156666604D01*
X194211613Y-156666604D02*
X194249708Y-156704699D01*
X194249708Y-156704699D02*
X194287803Y-156780890D01*
X194287803Y-156780890D02*
X194287803Y-156857080D01*
X194287803Y-156857080D02*
X194249708Y-156933271D01*
X194249708Y-156933271D02*
X194211613Y-156971366D01*
X194211613Y-156971366D02*
X194135422Y-157009461D01*
X194135422Y-157009461D02*
X193868756Y-157009461D01*
X194668756Y-156628509D02*
X194668756Y-157276128D01*
X194668756Y-157276128D02*
X194706851Y-157352318D01*
X194706851Y-157352318D02*
X194744946Y-157390414D01*
X194744946Y-157390414D02*
X194821137Y-157428509D01*
X194821137Y-157428509D02*
X194973518Y-157428509D01*
X194973518Y-157428509D02*
X195049708Y-157390414D01*
X195049708Y-157390414D02*
X195087803Y-157352318D01*
X195087803Y-157352318D02*
X195125899Y-157276128D01*
X195125899Y-157276128D02*
X195125899Y-156628509D01*
X195925898Y-156666604D02*
X195849708Y-156628509D01*
X195849708Y-156628509D02*
X195735422Y-156628509D01*
X195735422Y-156628509D02*
X195621136Y-156666604D01*
X195621136Y-156666604D02*
X195544946Y-156742794D01*
X195544946Y-156742794D02*
X195506851Y-156818985D01*
X195506851Y-156818985D02*
X195468755Y-156971366D01*
X195468755Y-156971366D02*
X195468755Y-157085652D01*
X195468755Y-157085652D02*
X195506851Y-157238033D01*
X195506851Y-157238033D02*
X195544946Y-157314223D01*
X195544946Y-157314223D02*
X195621136Y-157390414D01*
X195621136Y-157390414D02*
X195735422Y-157428509D01*
X195735422Y-157428509D02*
X195811613Y-157428509D01*
X195811613Y-157428509D02*
X195925898Y-157390414D01*
X195925898Y-157390414D02*
X195963994Y-157352318D01*
X195963994Y-157352318D02*
X195963994Y-157085652D01*
X195963994Y-157085652D02*
X195811613Y-157085652D01*
X192386850Y-159930414D02*
X192501136Y-159968509D01*
X192501136Y-159968509D02*
X192691612Y-159968509D01*
X192691612Y-159968509D02*
X192767803Y-159930414D01*
X192767803Y-159930414D02*
X192805898Y-159892318D01*
X192805898Y-159892318D02*
X192843993Y-159816128D01*
X192843993Y-159816128D02*
X192843993Y-159739937D01*
X192843993Y-159739937D02*
X192805898Y-159663747D01*
X192805898Y-159663747D02*
X192767803Y-159625652D01*
X192767803Y-159625652D02*
X192691612Y-159587556D01*
X192691612Y-159587556D02*
X192539231Y-159549461D01*
X192539231Y-159549461D02*
X192463041Y-159511366D01*
X192463041Y-159511366D02*
X192424946Y-159473271D01*
X192424946Y-159473271D02*
X192386850Y-159397080D01*
X192386850Y-159397080D02*
X192386850Y-159320890D01*
X192386850Y-159320890D02*
X192424946Y-159244699D01*
X192424946Y-159244699D02*
X192463041Y-159206604D01*
X192463041Y-159206604D02*
X192539231Y-159168509D01*
X192539231Y-159168509D02*
X192729708Y-159168509D01*
X192729708Y-159168509D02*
X192843993Y-159206604D01*
X193453517Y-159549461D02*
X193567803Y-159587556D01*
X193567803Y-159587556D02*
X193605898Y-159625652D01*
X193605898Y-159625652D02*
X193643994Y-159701842D01*
X193643994Y-159701842D02*
X193643994Y-159816128D01*
X193643994Y-159816128D02*
X193605898Y-159892318D01*
X193605898Y-159892318D02*
X193567803Y-159930414D01*
X193567803Y-159930414D02*
X193491613Y-159968509D01*
X193491613Y-159968509D02*
X193186851Y-159968509D01*
X193186851Y-159968509D02*
X193186851Y-159168509D01*
X193186851Y-159168509D02*
X193453517Y-159168509D01*
X193453517Y-159168509D02*
X193529708Y-159206604D01*
X193529708Y-159206604D02*
X193567803Y-159244699D01*
X193567803Y-159244699D02*
X193605898Y-159320890D01*
X193605898Y-159320890D02*
X193605898Y-159397080D01*
X193605898Y-159397080D02*
X193567803Y-159473271D01*
X193567803Y-159473271D02*
X193529708Y-159511366D01*
X193529708Y-159511366D02*
X193453517Y-159549461D01*
X193453517Y-159549461D02*
X193186851Y-159549461D01*
X193986851Y-159168509D02*
X193986851Y-159816128D01*
X193986851Y-159816128D02*
X194024946Y-159892318D01*
X194024946Y-159892318D02*
X194063041Y-159930414D01*
X194063041Y-159930414D02*
X194139232Y-159968509D01*
X194139232Y-159968509D02*
X194291613Y-159968509D01*
X194291613Y-159968509D02*
X194367803Y-159930414D01*
X194367803Y-159930414D02*
X194405898Y-159892318D01*
X194405898Y-159892318D02*
X194443994Y-159816128D01*
X194443994Y-159816128D02*
X194443994Y-159168509D01*
X194786850Y-159930414D02*
X194901136Y-159968509D01*
X194901136Y-159968509D02*
X195091612Y-159968509D01*
X195091612Y-159968509D02*
X195167803Y-159930414D01*
X195167803Y-159930414D02*
X195205898Y-159892318D01*
X195205898Y-159892318D02*
X195243993Y-159816128D01*
X195243993Y-159816128D02*
X195243993Y-159739937D01*
X195243993Y-159739937D02*
X195205898Y-159663747D01*
X195205898Y-159663747D02*
X195167803Y-159625652D01*
X195167803Y-159625652D02*
X195091612Y-159587556D01*
X195091612Y-159587556D02*
X194939231Y-159549461D01*
X194939231Y-159549461D02*
X194863041Y-159511366D01*
X194863041Y-159511366D02*
X194824946Y-159473271D01*
X194824946Y-159473271D02*
X194786850Y-159397080D01*
X194786850Y-159397080D02*
X194786850Y-159320890D01*
X194786850Y-159320890D02*
X194824946Y-159244699D01*
X194824946Y-159244699D02*
X194863041Y-159206604D01*
X194863041Y-159206604D02*
X194939231Y-159168509D01*
X194939231Y-159168509D02*
X195129708Y-159168509D01*
X195129708Y-159168509D02*
X195243993Y-159206604D01*
X194704946Y-164948509D02*
X194704946Y-164148509D01*
X194704946Y-164148509D02*
X194971612Y-164719937D01*
X194971612Y-164719937D02*
X195238279Y-164148509D01*
X195238279Y-164148509D02*
X195238279Y-164948509D01*
X195543041Y-164148509D02*
X196038279Y-164148509D01*
X196038279Y-164148509D02*
X195771613Y-164453271D01*
X195771613Y-164453271D02*
X195885898Y-164453271D01*
X195885898Y-164453271D02*
X195962089Y-164491366D01*
X195962089Y-164491366D02*
X196000184Y-164529461D01*
X196000184Y-164529461D02*
X196038279Y-164605652D01*
X196038279Y-164605652D02*
X196038279Y-164796128D01*
X196038279Y-164796128D02*
X196000184Y-164872318D01*
X196000184Y-164872318D02*
X195962089Y-164910414D01*
X195962089Y-164910414D02*
X195885898Y-164948509D01*
X195885898Y-164948509D02*
X195657327Y-164948509D01*
X195657327Y-164948509D02*
X195581136Y-164910414D01*
X195581136Y-164910414D02*
X195543041Y-164872318D01*
X196604946Y-161738509D02*
X196604946Y-160938509D01*
X196604946Y-160938509D02*
X196871612Y-161509937D01*
X196871612Y-161509937D02*
X197138279Y-160938509D01*
X197138279Y-160938509D02*
X197138279Y-161738509D01*
X197481136Y-161509937D02*
X197862089Y-161509937D01*
X197404946Y-161738509D02*
X197671613Y-160938509D01*
X197671613Y-160938509D02*
X197938279Y-161738509D01*
X198204946Y-161738509D02*
X198204946Y-160938509D01*
X198585898Y-161738509D02*
X198585898Y-160938509D01*
X198585898Y-160938509D02*
X199043041Y-161738509D01*
X199043041Y-161738509D02*
X199043041Y-160938509D01*
X200185898Y-160938509D02*
X200338279Y-160938509D01*
X200338279Y-160938509D02*
X200414469Y-160976604D01*
X200414469Y-160976604D02*
X200490660Y-161052794D01*
X200490660Y-161052794D02*
X200528755Y-161205175D01*
X200528755Y-161205175D02*
X200528755Y-161471842D01*
X200528755Y-161471842D02*
X200490660Y-161624223D01*
X200490660Y-161624223D02*
X200414469Y-161700414D01*
X200414469Y-161700414D02*
X200338279Y-161738509D01*
X200338279Y-161738509D02*
X200185898Y-161738509D01*
X200185898Y-161738509D02*
X200109707Y-161700414D01*
X200109707Y-161700414D02*
X200033517Y-161624223D01*
X200033517Y-161624223D02*
X199995421Y-161471842D01*
X199995421Y-161471842D02*
X199995421Y-161205175D01*
X199995421Y-161205175D02*
X200033517Y-161052794D01*
X200033517Y-161052794D02*
X200109707Y-160976604D01*
X200109707Y-160976604D02*
X200185898Y-160938509D01*
X200871612Y-160938509D02*
X200871612Y-161586128D01*
X200871612Y-161586128D02*
X200909707Y-161662318D01*
X200909707Y-161662318D02*
X200947802Y-161700414D01*
X200947802Y-161700414D02*
X201023993Y-161738509D01*
X201023993Y-161738509D02*
X201176374Y-161738509D01*
X201176374Y-161738509D02*
X201252564Y-161700414D01*
X201252564Y-161700414D02*
X201290659Y-161662318D01*
X201290659Y-161662318D02*
X201328755Y-161586128D01*
X201328755Y-161586128D02*
X201328755Y-160938509D01*
X201595421Y-160938509D02*
X202052564Y-160938509D01*
X201823992Y-161738509D02*
X201823992Y-160938509D01*
X197214946Y-164928509D02*
X197214946Y-164128509D01*
X197214946Y-164128509D02*
X197481612Y-164699937D01*
X197481612Y-164699937D02*
X197748279Y-164128509D01*
X197748279Y-164128509D02*
X197748279Y-164928509D01*
X198472089Y-164395175D02*
X198472089Y-164928509D01*
X198281613Y-164090414D02*
X198091136Y-164661842D01*
X198091136Y-164661842D02*
X198586375Y-164661842D01*
X199774946Y-164948509D02*
X199774946Y-164148509D01*
X199774946Y-164148509D02*
X200041612Y-164719937D01*
X200041612Y-164719937D02*
X200308279Y-164148509D01*
X200308279Y-164148509D02*
X200308279Y-164948509D01*
X201070184Y-164148509D02*
X200689232Y-164148509D01*
X200689232Y-164148509D02*
X200651136Y-164529461D01*
X200651136Y-164529461D02*
X200689232Y-164491366D01*
X200689232Y-164491366D02*
X200765422Y-164453271D01*
X200765422Y-164453271D02*
X200955898Y-164453271D01*
X200955898Y-164453271D02*
X201032089Y-164491366D01*
X201032089Y-164491366D02*
X201070184Y-164529461D01*
X201070184Y-164529461D02*
X201108279Y-164605652D01*
X201108279Y-164605652D02*
X201108279Y-164796128D01*
X201108279Y-164796128D02*
X201070184Y-164872318D01*
X201070184Y-164872318D02*
X201032089Y-164910414D01*
X201032089Y-164910414D02*
X200955898Y-164948509D01*
X200955898Y-164948509D02*
X200765422Y-164948509D01*
X200765422Y-164948509D02*
X200689232Y-164910414D01*
X200689232Y-164910414D02*
X200651136Y-164872318D01*
X202324946Y-164948509D02*
X202324946Y-164148509D01*
X202324946Y-164148509D02*
X202591612Y-164719937D01*
X202591612Y-164719937D02*
X202858279Y-164148509D01*
X202858279Y-164148509D02*
X202858279Y-164948509D01*
X203582089Y-164148509D02*
X203429708Y-164148509D01*
X203429708Y-164148509D02*
X203353517Y-164186604D01*
X203353517Y-164186604D02*
X203315422Y-164224699D01*
X203315422Y-164224699D02*
X203239232Y-164338985D01*
X203239232Y-164338985D02*
X203201136Y-164491366D01*
X203201136Y-164491366D02*
X203201136Y-164796128D01*
X203201136Y-164796128D02*
X203239232Y-164872318D01*
X203239232Y-164872318D02*
X203277327Y-164910414D01*
X203277327Y-164910414D02*
X203353517Y-164948509D01*
X203353517Y-164948509D02*
X203505898Y-164948509D01*
X203505898Y-164948509D02*
X203582089Y-164910414D01*
X203582089Y-164910414D02*
X203620184Y-164872318D01*
X203620184Y-164872318D02*
X203658279Y-164796128D01*
X203658279Y-164796128D02*
X203658279Y-164605652D01*
X203658279Y-164605652D02*
X203620184Y-164529461D01*
X203620184Y-164529461D02*
X203582089Y-164491366D01*
X203582089Y-164491366D02*
X203505898Y-164453271D01*
X203505898Y-164453271D02*
X203353517Y-164453271D01*
X203353517Y-164453271D02*
X203277327Y-164491366D01*
X203277327Y-164491366D02*
X203239232Y-164529461D01*
X203239232Y-164529461D02*
X203201136Y-164605652D01*
X204954946Y-164928509D02*
X204954946Y-164128509D01*
X204954946Y-164128509D02*
X205221612Y-164699937D01*
X205221612Y-164699937D02*
X205488279Y-164128509D01*
X205488279Y-164128509D02*
X205488279Y-164928509D01*
X205793041Y-164128509D02*
X206326375Y-164128509D01*
X206326375Y-164128509D02*
X205983517Y-164928509D01*
X207404946Y-164958509D02*
X207404946Y-164158509D01*
X207404946Y-164158509D02*
X207671612Y-164729937D01*
X207671612Y-164729937D02*
X207938279Y-164158509D01*
X207938279Y-164158509D02*
X207938279Y-164958509D01*
X208433517Y-164501366D02*
X208357327Y-164463271D01*
X208357327Y-164463271D02*
X208319232Y-164425175D01*
X208319232Y-164425175D02*
X208281136Y-164348985D01*
X208281136Y-164348985D02*
X208281136Y-164310890D01*
X208281136Y-164310890D02*
X208319232Y-164234699D01*
X208319232Y-164234699D02*
X208357327Y-164196604D01*
X208357327Y-164196604D02*
X208433517Y-164158509D01*
X208433517Y-164158509D02*
X208585898Y-164158509D01*
X208585898Y-164158509D02*
X208662089Y-164196604D01*
X208662089Y-164196604D02*
X208700184Y-164234699D01*
X208700184Y-164234699D02*
X208738279Y-164310890D01*
X208738279Y-164310890D02*
X208738279Y-164348985D01*
X208738279Y-164348985D02*
X208700184Y-164425175D01*
X208700184Y-164425175D02*
X208662089Y-164463271D01*
X208662089Y-164463271D02*
X208585898Y-164501366D01*
X208585898Y-164501366D02*
X208433517Y-164501366D01*
X208433517Y-164501366D02*
X208357327Y-164539461D01*
X208357327Y-164539461D02*
X208319232Y-164577556D01*
X208319232Y-164577556D02*
X208281136Y-164653747D01*
X208281136Y-164653747D02*
X208281136Y-164806128D01*
X208281136Y-164806128D02*
X208319232Y-164882318D01*
X208319232Y-164882318D02*
X208357327Y-164920414D01*
X208357327Y-164920414D02*
X208433517Y-164958509D01*
X208433517Y-164958509D02*
X208585898Y-164958509D01*
X208585898Y-164958509D02*
X208662089Y-164920414D01*
X208662089Y-164920414D02*
X208700184Y-164882318D01*
X208700184Y-164882318D02*
X208738279Y-164806128D01*
X208738279Y-164806128D02*
X208738279Y-164653747D01*
X208738279Y-164653747D02*
X208700184Y-164577556D01*
X208700184Y-164577556D02*
X208662089Y-164539461D01*
X208662089Y-164539461D02*
X208585898Y-164501366D01*
X209966850Y-164679937D02*
X210347803Y-164679937D01*
X209890660Y-164908509D02*
X210157327Y-164108509D01*
X210157327Y-164108509D02*
X210423993Y-164908509D01*
X211033517Y-164108509D02*
X210881136Y-164108509D01*
X210881136Y-164108509D02*
X210804945Y-164146604D01*
X210804945Y-164146604D02*
X210766850Y-164184699D01*
X210766850Y-164184699D02*
X210690660Y-164298985D01*
X210690660Y-164298985D02*
X210652564Y-164451366D01*
X210652564Y-164451366D02*
X210652564Y-164756128D01*
X210652564Y-164756128D02*
X210690660Y-164832318D01*
X210690660Y-164832318D02*
X210728755Y-164870414D01*
X210728755Y-164870414D02*
X210804945Y-164908509D01*
X210804945Y-164908509D02*
X210957326Y-164908509D01*
X210957326Y-164908509D02*
X211033517Y-164870414D01*
X211033517Y-164870414D02*
X211071612Y-164832318D01*
X211071612Y-164832318D02*
X211109707Y-164756128D01*
X211109707Y-164756128D02*
X211109707Y-164565652D01*
X211109707Y-164565652D02*
X211071612Y-164489461D01*
X211071612Y-164489461D02*
X211033517Y-164451366D01*
X211033517Y-164451366D02*
X210957326Y-164413271D01*
X210957326Y-164413271D02*
X210804945Y-164413271D01*
X210804945Y-164413271D02*
X210728755Y-164451366D01*
X210728755Y-164451366D02*
X210690660Y-164489461D01*
X210690660Y-164489461D02*
X210652564Y-164565652D01*
X212636850Y-164689937D02*
X213017803Y-164689937D01*
X212560660Y-164918509D02*
X212827327Y-164118509D01*
X212827327Y-164118509D02*
X213093993Y-164918509D01*
X213741612Y-164118509D02*
X213360660Y-164118509D01*
X213360660Y-164118509D02*
X213322564Y-164499461D01*
X213322564Y-164499461D02*
X213360660Y-164461366D01*
X213360660Y-164461366D02*
X213436850Y-164423271D01*
X213436850Y-164423271D02*
X213627326Y-164423271D01*
X213627326Y-164423271D02*
X213703517Y-164461366D01*
X213703517Y-164461366D02*
X213741612Y-164499461D01*
X213741612Y-164499461D02*
X213779707Y-164575652D01*
X213779707Y-164575652D02*
X213779707Y-164766128D01*
X213779707Y-164766128D02*
X213741612Y-164842318D01*
X213741612Y-164842318D02*
X213703517Y-164880414D01*
X213703517Y-164880414D02*
X213627326Y-164918509D01*
X213627326Y-164918509D02*
X213436850Y-164918509D01*
X213436850Y-164918509D02*
X213360660Y-164880414D01*
X213360660Y-164880414D02*
X213322564Y-164842318D01*
X214506850Y-161509937D02*
X214887803Y-161509937D01*
X214430660Y-161738509D02*
X214697327Y-160938509D01*
X214697327Y-160938509D02*
X214963993Y-161738509D01*
X215230660Y-160938509D02*
X215230660Y-161586128D01*
X215230660Y-161586128D02*
X215268755Y-161662318D01*
X215268755Y-161662318D02*
X215306850Y-161700414D01*
X215306850Y-161700414D02*
X215383041Y-161738509D01*
X215383041Y-161738509D02*
X215535422Y-161738509D01*
X215535422Y-161738509D02*
X215611612Y-161700414D01*
X215611612Y-161700414D02*
X215649707Y-161662318D01*
X215649707Y-161662318D02*
X215687803Y-161586128D01*
X215687803Y-161586128D02*
X215687803Y-160938509D01*
X215992564Y-160938509D02*
X216525898Y-161738509D01*
X216525898Y-160938509D02*
X215992564Y-161738509D01*
X217592565Y-160938509D02*
X217744946Y-160938509D01*
X217744946Y-160938509D02*
X217821136Y-160976604D01*
X217821136Y-160976604D02*
X217897327Y-161052794D01*
X217897327Y-161052794D02*
X217935422Y-161205175D01*
X217935422Y-161205175D02*
X217935422Y-161471842D01*
X217935422Y-161471842D02*
X217897327Y-161624223D01*
X217897327Y-161624223D02*
X217821136Y-161700414D01*
X217821136Y-161700414D02*
X217744946Y-161738509D01*
X217744946Y-161738509D02*
X217592565Y-161738509D01*
X217592565Y-161738509D02*
X217516374Y-161700414D01*
X217516374Y-161700414D02*
X217440184Y-161624223D01*
X217440184Y-161624223D02*
X217402088Y-161471842D01*
X217402088Y-161471842D02*
X217402088Y-161205175D01*
X217402088Y-161205175D02*
X217440184Y-161052794D01*
X217440184Y-161052794D02*
X217516374Y-160976604D01*
X217516374Y-160976604D02*
X217592565Y-160938509D01*
X218278279Y-160938509D02*
X218278279Y-161586128D01*
X218278279Y-161586128D02*
X218316374Y-161662318D01*
X218316374Y-161662318D02*
X218354469Y-161700414D01*
X218354469Y-161700414D02*
X218430660Y-161738509D01*
X218430660Y-161738509D02*
X218583041Y-161738509D01*
X218583041Y-161738509D02*
X218659231Y-161700414D01*
X218659231Y-161700414D02*
X218697326Y-161662318D01*
X218697326Y-161662318D02*
X218735422Y-161586128D01*
X218735422Y-161586128D02*
X218735422Y-160938509D01*
X219002088Y-160938509D02*
X219459231Y-160938509D01*
X219230659Y-161738509D02*
X219230659Y-160938509D01*
X215116850Y-164719937D02*
X215497803Y-164719937D01*
X215040660Y-164948509D02*
X215307327Y-164148509D01*
X215307327Y-164148509D02*
X215573993Y-164948509D01*
X216183517Y-164415175D02*
X216183517Y-164948509D01*
X215993041Y-164110414D02*
X215802564Y-164681842D01*
X215802564Y-164681842D02*
X216297803Y-164681842D01*
X217626850Y-164709937D02*
X218007803Y-164709937D01*
X217550660Y-164938509D02*
X217817327Y-164138509D01*
X217817327Y-164138509D02*
X218083993Y-164938509D01*
X218274469Y-164138509D02*
X218769707Y-164138509D01*
X218769707Y-164138509D02*
X218503041Y-164443271D01*
X218503041Y-164443271D02*
X218617326Y-164443271D01*
X218617326Y-164443271D02*
X218693517Y-164481366D01*
X218693517Y-164481366D02*
X218731612Y-164519461D01*
X218731612Y-164519461D02*
X218769707Y-164595652D01*
X218769707Y-164595652D02*
X218769707Y-164786128D01*
X218769707Y-164786128D02*
X218731612Y-164862318D01*
X218731612Y-164862318D02*
X218693517Y-164900414D01*
X218693517Y-164900414D02*
X218617326Y-164938509D01*
X218617326Y-164938509D02*
X218388755Y-164938509D01*
X218388755Y-164938509D02*
X218312564Y-164900414D01*
X218312564Y-164900414D02*
X218274469Y-164862318D01*
X220216850Y-164719937D02*
X220597803Y-164719937D01*
X220140660Y-164948509D02*
X220407327Y-164148509D01*
X220407327Y-164148509D02*
X220673993Y-164948509D01*
X220902564Y-164224699D02*
X220940660Y-164186604D01*
X220940660Y-164186604D02*
X221016850Y-164148509D01*
X221016850Y-164148509D02*
X221207326Y-164148509D01*
X221207326Y-164148509D02*
X221283517Y-164186604D01*
X221283517Y-164186604D02*
X221321612Y-164224699D01*
X221321612Y-164224699D02*
X221359707Y-164300890D01*
X221359707Y-164300890D02*
X221359707Y-164377080D01*
X221359707Y-164377080D02*
X221321612Y-164491366D01*
X221321612Y-164491366D02*
X220864469Y-164948509D01*
X220864469Y-164948509D02*
X221359707Y-164948509D01*
X222686850Y-164679937D02*
X223067803Y-164679937D01*
X222610660Y-164908509D02*
X222877327Y-164108509D01*
X222877327Y-164108509D02*
X223143993Y-164908509D01*
X223829707Y-164908509D02*
X223372564Y-164908509D01*
X223601136Y-164908509D02*
X223601136Y-164108509D01*
X223601136Y-164108509D02*
X223524945Y-164222794D01*
X223524945Y-164222794D02*
X223448755Y-164298985D01*
X223448755Y-164298985D02*
X223372564Y-164337080D01*
X188280081Y-164537910D02*
X187899128Y-164804577D01*
X188280081Y-164995053D02*
X187480081Y-164995053D01*
X187480081Y-164995053D02*
X187480081Y-164690291D01*
X187480081Y-164690291D02*
X187518176Y-164614101D01*
X187518176Y-164614101D02*
X187556271Y-164576006D01*
X187556271Y-164576006D02*
X187632462Y-164537910D01*
X187632462Y-164537910D02*
X187746747Y-164537910D01*
X187746747Y-164537910D02*
X187822938Y-164576006D01*
X187822938Y-164576006D02*
X187861033Y-164614101D01*
X187861033Y-164614101D02*
X187899128Y-164690291D01*
X187899128Y-164690291D02*
X187899128Y-164995053D01*
X188203890Y-163737910D02*
X188241986Y-163776006D01*
X188241986Y-163776006D02*
X188280081Y-163890291D01*
X188280081Y-163890291D02*
X188280081Y-163966482D01*
X188280081Y-163966482D02*
X188241986Y-164080768D01*
X188241986Y-164080768D02*
X188165795Y-164156958D01*
X188165795Y-164156958D02*
X188089605Y-164195053D01*
X188089605Y-164195053D02*
X187937224Y-164233149D01*
X187937224Y-164233149D02*
X187822938Y-164233149D01*
X187822938Y-164233149D02*
X187670557Y-164195053D01*
X187670557Y-164195053D02*
X187594366Y-164156958D01*
X187594366Y-164156958D02*
X187518176Y-164080768D01*
X187518176Y-164080768D02*
X187480081Y-163966482D01*
X187480081Y-163966482D02*
X187480081Y-163890291D01*
X187480081Y-163890291D02*
X187518176Y-163776006D01*
X187518176Y-163776006D02*
X187556271Y-163737910D01*
X188280081Y-163395053D02*
X187480081Y-163395053D01*
X188280081Y-163014101D02*
X187480081Y-163014101D01*
X187480081Y-163014101D02*
X188280081Y-162556958D01*
X188280081Y-162556958D02*
X187480081Y-162556958D01*
D12*
X184605459Y-172170480D02*
X185367364Y-172170480D01*
X184645459Y-169540480D02*
X185407364Y-169540480D01*
X185026411Y-169921433D02*
X185026411Y-169159528D01*
X184647840Y-167513814D02*
X184790697Y-167561433D01*
X184790697Y-167561433D02*
X185028792Y-167561433D01*
X185028792Y-167561433D02*
X185124030Y-167513814D01*
X185124030Y-167513814D02*
X185171649Y-167466194D01*
X185171649Y-167466194D02*
X185219268Y-167370956D01*
X185219268Y-167370956D02*
X185219268Y-167275718D01*
X185219268Y-167275718D02*
X185171649Y-167180480D01*
X185171649Y-167180480D02*
X185124030Y-167132861D01*
X185124030Y-167132861D02*
X185028792Y-167085242D01*
X185028792Y-167085242D02*
X184838316Y-167037623D01*
X184838316Y-167037623D02*
X184743078Y-166990004D01*
X184743078Y-166990004D02*
X184695459Y-166942385D01*
X184695459Y-166942385D02*
X184647840Y-166847147D01*
X184647840Y-166847147D02*
X184647840Y-166751909D01*
X184647840Y-166751909D02*
X184695459Y-166656671D01*
X184695459Y-166656671D02*
X184743078Y-166609052D01*
X184743078Y-166609052D02*
X184838316Y-166561433D01*
X184838316Y-166561433D02*
X185076411Y-166561433D01*
X185076411Y-166561433D02*
X185219268Y-166609052D01*
X188192052Y-151794540D02*
X188192052Y-151032636D01*
X188573005Y-151413588D02*
X187811100Y-151413588D01*
X190772052Y-151804540D02*
X190772052Y-151042636D01*
X185206186Y-151286268D02*
X185158566Y-151429125D01*
X185158566Y-151429125D02*
X185158566Y-151667220D01*
X185158566Y-151667220D02*
X185206186Y-151762458D01*
X185206186Y-151762458D02*
X185253805Y-151810077D01*
X185253805Y-151810077D02*
X185349043Y-151857696D01*
X185349043Y-151857696D02*
X185444281Y-151857696D01*
X185444281Y-151857696D02*
X185539519Y-151810077D01*
X185539519Y-151810077D02*
X185587138Y-151762458D01*
X185587138Y-151762458D02*
X185634757Y-151667220D01*
X185634757Y-151667220D02*
X185682376Y-151476744D01*
X185682376Y-151476744D02*
X185729995Y-151381506D01*
X185729995Y-151381506D02*
X185777614Y-151333887D01*
X185777614Y-151333887D02*
X185872852Y-151286268D01*
X185872852Y-151286268D02*
X185968090Y-151286268D01*
X185968090Y-151286268D02*
X186063328Y-151333887D01*
X186063328Y-151333887D02*
X186110947Y-151381506D01*
X186110947Y-151381506D02*
X186158566Y-151476744D01*
X186158566Y-151476744D02*
X186158566Y-151714839D01*
X186158566Y-151714839D02*
X186110947Y-151857696D01*
D11*
X183246205Y-137065166D02*
X183198586Y-137017547D01*
X183198586Y-137017547D02*
X183150966Y-136874690D01*
X183150966Y-136874690D02*
X183150966Y-136779452D01*
X183150966Y-136779452D02*
X183198586Y-136636595D01*
X183198586Y-136636595D02*
X183293824Y-136541357D01*
X183293824Y-136541357D02*
X183389062Y-136493738D01*
X183389062Y-136493738D02*
X183579538Y-136446119D01*
X183579538Y-136446119D02*
X183722395Y-136446119D01*
X183722395Y-136446119D02*
X183912871Y-136493738D01*
X183912871Y-136493738D02*
X184008109Y-136541357D01*
X184008109Y-136541357D02*
X184103347Y-136636595D01*
X184103347Y-136636595D02*
X184150966Y-136779452D01*
X184150966Y-136779452D02*
X184150966Y-136874690D01*
X184150966Y-136874690D02*
X184103347Y-137017547D01*
X184103347Y-137017547D02*
X184055728Y-137065166D01*
X183436681Y-137446119D02*
X183436681Y-137922309D01*
X183150966Y-137350881D02*
X184150966Y-137684214D01*
X184150966Y-137684214D02*
X183150966Y-138017547D01*
X183150966Y-138350881D02*
X184150966Y-138350881D01*
X184150966Y-138350881D02*
X183150966Y-138922309D01*
X183150966Y-138922309D02*
X184150966Y-138922309D01*
X184150966Y-139303262D02*
X184150966Y-139922309D01*
X184150966Y-139922309D02*
X183770014Y-139588976D01*
X183770014Y-139588976D02*
X183770014Y-139731833D01*
X183770014Y-139731833D02*
X183722395Y-139827071D01*
X183722395Y-139827071D02*
X183674776Y-139874690D01*
X183674776Y-139874690D02*
X183579538Y-139922309D01*
X183579538Y-139922309D02*
X183341443Y-139922309D01*
X183341443Y-139922309D02*
X183246205Y-139874690D01*
X183246205Y-139874690D02*
X183198586Y-139827071D01*
X183198586Y-139827071D02*
X183150966Y-139731833D01*
X183150966Y-139731833D02*
X183150966Y-139446119D01*
X183150966Y-139446119D02*
X183198586Y-139350881D01*
X183198586Y-139350881D02*
X183246205Y-139303262D01*
X184156752Y-111750571D02*
X184156752Y-112321999D01*
X183156752Y-112036285D02*
X184156752Y-112036285D01*
X183680562Y-112655333D02*
X183680562Y-112988666D01*
X183156752Y-113131523D02*
X183156752Y-112655333D01*
X183156752Y-112655333D02*
X184156752Y-112655333D01*
X184156752Y-112655333D02*
X184156752Y-113131523D01*
X183156752Y-114036285D02*
X183156752Y-113560095D01*
X183156752Y-113560095D02*
X184156752Y-113560095D01*
X183680562Y-114369619D02*
X183680562Y-114702952D01*
X183156752Y-114845809D02*
X183156752Y-114369619D01*
X183156752Y-114369619D02*
X184156752Y-114369619D01*
X184156752Y-114369619D02*
X184156752Y-114845809D01*
X183156752Y-115274381D02*
X184156752Y-115274381D01*
X184156752Y-115274381D02*
X183442467Y-115607714D01*
X183442467Y-115607714D02*
X184156752Y-115941047D01*
X184156752Y-115941047D02*
X183156752Y-115941047D01*
X184061514Y-116369619D02*
X184109133Y-116417238D01*
X184109133Y-116417238D02*
X184156752Y-116512476D01*
X184156752Y-116512476D02*
X184156752Y-116750571D01*
X184156752Y-116750571D02*
X184109133Y-116845809D01*
X184109133Y-116845809D02*
X184061514Y-116893428D01*
X184061514Y-116893428D02*
X183966276Y-116941047D01*
X183966276Y-116941047D02*
X183871038Y-116941047D01*
X183871038Y-116941047D02*
X183728181Y-116893428D01*
X183728181Y-116893428D02*
X183156752Y-116322000D01*
X183156752Y-116322000D02*
X183156752Y-116941047D01*
X216030072Y-95089033D02*
X216030072Y-94089033D01*
X216030072Y-94089033D02*
X216411024Y-94089033D01*
X216411024Y-94089033D02*
X216506262Y-94136652D01*
X216506262Y-94136652D02*
X216553881Y-94184271D01*
X216553881Y-94184271D02*
X216601500Y-94279509D01*
X216601500Y-94279509D02*
X216601500Y-94422366D01*
X216601500Y-94422366D02*
X216553881Y-94517604D01*
X216553881Y-94517604D02*
X216506262Y-94565223D01*
X216506262Y-94565223D02*
X216411024Y-94612842D01*
X216411024Y-94612842D02*
X216030072Y-94612842D01*
X217220548Y-94089033D02*
X217411024Y-94089033D01*
X217411024Y-94089033D02*
X217506262Y-94136652D01*
X217506262Y-94136652D02*
X217601500Y-94231890D01*
X217601500Y-94231890D02*
X217649119Y-94422366D01*
X217649119Y-94422366D02*
X217649119Y-94755699D01*
X217649119Y-94755699D02*
X217601500Y-94946175D01*
X217601500Y-94946175D02*
X217506262Y-95041414D01*
X217506262Y-95041414D02*
X217411024Y-95089033D01*
X217411024Y-95089033D02*
X217220548Y-95089033D01*
X217220548Y-95089033D02*
X217125310Y-95041414D01*
X217125310Y-95041414D02*
X217030072Y-94946175D01*
X217030072Y-94946175D02*
X216982453Y-94755699D01*
X216982453Y-94755699D02*
X216982453Y-94422366D01*
X216982453Y-94422366D02*
X217030072Y-94231890D01*
X217030072Y-94231890D02*
X217125310Y-94136652D01*
X217125310Y-94136652D02*
X217220548Y-94089033D01*
X217982453Y-94089033D02*
X218220548Y-95089033D01*
X218220548Y-95089033D02*
X218411024Y-94374747D01*
X218411024Y-94374747D02*
X218601500Y-95089033D01*
X218601500Y-95089033D02*
X218839596Y-94089033D01*
X219220548Y-94565223D02*
X219553881Y-94565223D01*
X219696738Y-95089033D02*
X219220548Y-95089033D01*
X219220548Y-95089033D02*
X219220548Y-94089033D01*
X219220548Y-94089033D02*
X219696738Y-94089033D01*
X220696738Y-95089033D02*
X220363405Y-94612842D01*
X220125310Y-95089033D02*
X220125310Y-94089033D01*
X220125310Y-94089033D02*
X220506262Y-94089033D01*
X220506262Y-94089033D02*
X220601500Y-94136652D01*
X220601500Y-94136652D02*
X220649119Y-94184271D01*
X220649119Y-94184271D02*
X220696738Y-94279509D01*
X220696738Y-94279509D02*
X220696738Y-94422366D01*
X220696738Y-94422366D02*
X220649119Y-94517604D01*
X220649119Y-94517604D02*
X220601500Y-94565223D01*
X220601500Y-94565223D02*
X220506262Y-94612842D01*
X220506262Y-94612842D02*
X220125310Y-94612842D01*
X221077691Y-94184271D02*
X221125310Y-94136652D01*
X221125310Y-94136652D02*
X221220548Y-94089033D01*
X221220548Y-94089033D02*
X221458643Y-94089033D01*
X221458643Y-94089033D02*
X221553881Y-94136652D01*
X221553881Y-94136652D02*
X221601500Y-94184271D01*
X221601500Y-94184271D02*
X221649119Y-94279509D01*
X221649119Y-94279509D02*
X221649119Y-94374747D01*
X221649119Y-94374747D02*
X221601500Y-94517604D01*
X221601500Y-94517604D02*
X221030072Y-95089033D01*
X221030072Y-95089033D02*
X221649119Y-95089033D01*
D13*
X203206666Y-97267190D02*
X203182857Y-97291000D01*
X203182857Y-97291000D02*
X203111428Y-97314809D01*
X203111428Y-97314809D02*
X203063809Y-97314809D01*
X203063809Y-97314809D02*
X202992381Y-97291000D01*
X202992381Y-97291000D02*
X202944762Y-97243380D01*
X202944762Y-97243380D02*
X202920952Y-97195761D01*
X202920952Y-97195761D02*
X202897143Y-97100523D01*
X202897143Y-97100523D02*
X202897143Y-97029095D01*
X202897143Y-97029095D02*
X202920952Y-96933857D01*
X202920952Y-96933857D02*
X202944762Y-96886238D01*
X202944762Y-96886238D02*
X202992381Y-96838619D01*
X202992381Y-96838619D02*
X203063809Y-96814809D01*
X203063809Y-96814809D02*
X203111428Y-96814809D01*
X203111428Y-96814809D02*
X203182857Y-96838619D01*
X203182857Y-96838619D02*
X203206666Y-96862428D01*
X203492381Y-97029095D02*
X203444762Y-97005285D01*
X203444762Y-97005285D02*
X203420952Y-96981476D01*
X203420952Y-96981476D02*
X203397143Y-96933857D01*
X203397143Y-96933857D02*
X203397143Y-96910047D01*
X203397143Y-96910047D02*
X203420952Y-96862428D01*
X203420952Y-96862428D02*
X203444762Y-96838619D01*
X203444762Y-96838619D02*
X203492381Y-96814809D01*
X203492381Y-96814809D02*
X203587619Y-96814809D01*
X203587619Y-96814809D02*
X203635238Y-96838619D01*
X203635238Y-96838619D02*
X203659047Y-96862428D01*
X203659047Y-96862428D02*
X203682857Y-96910047D01*
X203682857Y-96910047D02*
X203682857Y-96933857D01*
X203682857Y-96933857D02*
X203659047Y-96981476D01*
X203659047Y-96981476D02*
X203635238Y-97005285D01*
X203635238Y-97005285D02*
X203587619Y-97029095D01*
X203587619Y-97029095D02*
X203492381Y-97029095D01*
X203492381Y-97029095D02*
X203444762Y-97052904D01*
X203444762Y-97052904D02*
X203420952Y-97076714D01*
X203420952Y-97076714D02*
X203397143Y-97124333D01*
X203397143Y-97124333D02*
X203397143Y-97219571D01*
X203397143Y-97219571D02*
X203420952Y-97267190D01*
X203420952Y-97267190D02*
X203444762Y-97291000D01*
X203444762Y-97291000D02*
X203492381Y-97314809D01*
X203492381Y-97314809D02*
X203587619Y-97314809D01*
X203587619Y-97314809D02*
X203635238Y-97291000D01*
X203635238Y-97291000D02*
X203659047Y-97267190D01*
X203659047Y-97267190D02*
X203682857Y-97219571D01*
X203682857Y-97219571D02*
X203682857Y-97124333D01*
X203682857Y-97124333D02*
X203659047Y-97076714D01*
X203659047Y-97076714D02*
X203635238Y-97052904D01*
X203635238Y-97052904D02*
X203587619Y-97029095D01*
X207318571Y-97317190D02*
X207294762Y-97341000D01*
X207294762Y-97341000D02*
X207223333Y-97364809D01*
X207223333Y-97364809D02*
X207175714Y-97364809D01*
X207175714Y-97364809D02*
X207104286Y-97341000D01*
X207104286Y-97341000D02*
X207056667Y-97293380D01*
X207056667Y-97293380D02*
X207032857Y-97245761D01*
X207032857Y-97245761D02*
X207009048Y-97150523D01*
X207009048Y-97150523D02*
X207009048Y-97079095D01*
X207009048Y-97079095D02*
X207032857Y-96983857D01*
X207032857Y-96983857D02*
X207056667Y-96936238D01*
X207056667Y-96936238D02*
X207104286Y-96888619D01*
X207104286Y-96888619D02*
X207175714Y-96864809D01*
X207175714Y-96864809D02*
X207223333Y-96864809D01*
X207223333Y-96864809D02*
X207294762Y-96888619D01*
X207294762Y-96888619D02*
X207318571Y-96912428D01*
X207794762Y-97364809D02*
X207509048Y-97364809D01*
X207651905Y-97364809D02*
X207651905Y-96864809D01*
X207651905Y-96864809D02*
X207604286Y-96936238D01*
X207604286Y-96936238D02*
X207556667Y-96983857D01*
X207556667Y-96983857D02*
X207509048Y-97007666D01*
X208104285Y-96864809D02*
X208151904Y-96864809D01*
X208151904Y-96864809D02*
X208199523Y-96888619D01*
X208199523Y-96888619D02*
X208223333Y-96912428D01*
X208223333Y-96912428D02*
X208247142Y-96960047D01*
X208247142Y-96960047D02*
X208270952Y-97055285D01*
X208270952Y-97055285D02*
X208270952Y-97174333D01*
X208270952Y-97174333D02*
X208247142Y-97269571D01*
X208247142Y-97269571D02*
X208223333Y-97317190D01*
X208223333Y-97317190D02*
X208199523Y-97341000D01*
X208199523Y-97341000D02*
X208151904Y-97364809D01*
X208151904Y-97364809D02*
X208104285Y-97364809D01*
X208104285Y-97364809D02*
X208056666Y-97341000D01*
X208056666Y-97341000D02*
X208032857Y-97317190D01*
X208032857Y-97317190D02*
X208009047Y-97269571D01*
X208009047Y-97269571D02*
X207985238Y-97174333D01*
X207985238Y-97174333D02*
X207985238Y-97055285D01*
X207985238Y-97055285D02*
X208009047Y-96960047D01*
X208009047Y-96960047D02*
X208032857Y-96912428D01*
X208032857Y-96912428D02*
X208056666Y-96888619D01*
X208056666Y-96888619D02*
X208104285Y-96864809D01*
D11*
X227398224Y-111370476D02*
X227350605Y-111465714D01*
X227350605Y-111465714D02*
X227350605Y-111608571D01*
X227350605Y-111608571D02*
X227398224Y-111751428D01*
X227398224Y-111751428D02*
X227493462Y-111846666D01*
X227493462Y-111846666D02*
X227588700Y-111894285D01*
X227588700Y-111894285D02*
X227779176Y-111941904D01*
X227779176Y-111941904D02*
X227922033Y-111941904D01*
X227922033Y-111941904D02*
X228112509Y-111894285D01*
X228112509Y-111894285D02*
X228207747Y-111846666D01*
X228207747Y-111846666D02*
X228302986Y-111751428D01*
X228302986Y-111751428D02*
X228350605Y-111608571D01*
X228350605Y-111608571D02*
X228350605Y-111513333D01*
X228350605Y-111513333D02*
X228302986Y-111370476D01*
X228302986Y-111370476D02*
X228255366Y-111322857D01*
X228255366Y-111322857D02*
X227922033Y-111322857D01*
X227922033Y-111322857D02*
X227922033Y-111513333D01*
X228350605Y-110894285D02*
X227350605Y-110894285D01*
X227350605Y-110894285D02*
X227350605Y-110513333D01*
X227350605Y-110513333D02*
X227398224Y-110418095D01*
X227398224Y-110418095D02*
X227445843Y-110370476D01*
X227445843Y-110370476D02*
X227541081Y-110322857D01*
X227541081Y-110322857D02*
X227683938Y-110322857D01*
X227683938Y-110322857D02*
X227779176Y-110370476D01*
X227779176Y-110370476D02*
X227826795Y-110418095D01*
X227826795Y-110418095D02*
X227874414Y-110513333D01*
X227874414Y-110513333D02*
X227874414Y-110894285D01*
X228302986Y-109941904D02*
X228350605Y-109799047D01*
X228350605Y-109799047D02*
X228350605Y-109560952D01*
X228350605Y-109560952D02*
X228302986Y-109465714D01*
X228302986Y-109465714D02*
X228255366Y-109418095D01*
X228255366Y-109418095D02*
X228160128Y-109370476D01*
X228160128Y-109370476D02*
X228064890Y-109370476D01*
X228064890Y-109370476D02*
X227969652Y-109418095D01*
X227969652Y-109418095D02*
X227922033Y-109465714D01*
X227922033Y-109465714D02*
X227874414Y-109560952D01*
X227874414Y-109560952D02*
X227826795Y-109751428D01*
X227826795Y-109751428D02*
X227779176Y-109846666D01*
X227779176Y-109846666D02*
X227731557Y-109894285D01*
X227731557Y-109894285D02*
X227636319Y-109941904D01*
X227636319Y-109941904D02*
X227541081Y-109941904D01*
X227541081Y-109941904D02*
X227445843Y-109894285D01*
X227445843Y-109894285D02*
X227398224Y-109846666D01*
X227398224Y-109846666D02*
X227350605Y-109751428D01*
X227350605Y-109751428D02*
X227350605Y-109513333D01*
X227350605Y-109513333D02*
X227398224Y-109370476D01*
X227445843Y-108989523D02*
X227398224Y-108941904D01*
X227398224Y-108941904D02*
X227350605Y-108846666D01*
X227350605Y-108846666D02*
X227350605Y-108608571D01*
X227350605Y-108608571D02*
X227398224Y-108513333D01*
X227398224Y-108513333D02*
X227445843Y-108465714D01*
X227445843Y-108465714D02*
X227541081Y-108418095D01*
X227541081Y-108418095D02*
X227636319Y-108418095D01*
X227636319Y-108418095D02*
X227779176Y-108465714D01*
X227779176Y-108465714D02*
X228350605Y-109037142D01*
X228350605Y-109037142D02*
X228350605Y-108418095D01*
X227724890Y-168488499D02*
X227724890Y-168012309D01*
X228010605Y-168583737D02*
X227010605Y-168250404D01*
X227010605Y-168250404D02*
X228010605Y-167917071D01*
X228010605Y-167583737D02*
X227010605Y-167583737D01*
X227010605Y-167583737D02*
X227010605Y-167345642D01*
X227010605Y-167345642D02*
X227058224Y-167202785D01*
X227058224Y-167202785D02*
X227153462Y-167107547D01*
X227153462Y-167107547D02*
X227248700Y-167059928D01*
X227248700Y-167059928D02*
X227439176Y-167012309D01*
X227439176Y-167012309D02*
X227582033Y-167012309D01*
X227582033Y-167012309D02*
X227772509Y-167059928D01*
X227772509Y-167059928D02*
X227867747Y-167107547D01*
X227867747Y-167107547D02*
X227962986Y-167202785D01*
X227962986Y-167202785D02*
X228010605Y-167345642D01*
X228010605Y-167345642D02*
X228010605Y-167583737D01*
X227915366Y-166012309D02*
X227962986Y-166059928D01*
X227962986Y-166059928D02*
X228010605Y-166202785D01*
X228010605Y-166202785D02*
X228010605Y-166298023D01*
X228010605Y-166298023D02*
X227962986Y-166440880D01*
X227962986Y-166440880D02*
X227867747Y-166536118D01*
X227867747Y-166536118D02*
X227772509Y-166583737D01*
X227772509Y-166583737D02*
X227582033Y-166631356D01*
X227582033Y-166631356D02*
X227439176Y-166631356D01*
X227439176Y-166631356D02*
X227248700Y-166583737D01*
X227248700Y-166583737D02*
X227153462Y-166536118D01*
X227153462Y-166536118D02*
X227058224Y-166440880D01*
X227058224Y-166440880D02*
X227010605Y-166298023D01*
X227010605Y-166298023D02*
X227010605Y-166202785D01*
X227010605Y-166202785D02*
X227058224Y-166059928D01*
X227058224Y-166059928D02*
X227105843Y-166012309D01*
X228010605Y-165059928D02*
X228010605Y-165631356D01*
X228010605Y-165345642D02*
X227010605Y-165345642D01*
X227010605Y-165345642D02*
X227153462Y-165440880D01*
X227153462Y-165440880D02*
X227248700Y-165536118D01*
X227248700Y-165536118D02*
X227296319Y-165631356D01*
D13*
X202824357Y-106271404D02*
X202800548Y-106295214D01*
X202800548Y-106295214D02*
X202729119Y-106319023D01*
X202729119Y-106319023D02*
X202681500Y-106319023D01*
X202681500Y-106319023D02*
X202610072Y-106295214D01*
X202610072Y-106295214D02*
X202562453Y-106247594D01*
X202562453Y-106247594D02*
X202538643Y-106199975D01*
X202538643Y-106199975D02*
X202514834Y-106104737D01*
X202514834Y-106104737D02*
X202514834Y-106033309D01*
X202514834Y-106033309D02*
X202538643Y-105938071D01*
X202538643Y-105938071D02*
X202562453Y-105890452D01*
X202562453Y-105890452D02*
X202610072Y-105842833D01*
X202610072Y-105842833D02*
X202681500Y-105819023D01*
X202681500Y-105819023D02*
X202729119Y-105819023D01*
X202729119Y-105819023D02*
X202800548Y-105842833D01*
X202800548Y-105842833D02*
X202824357Y-105866642D01*
X203300548Y-106319023D02*
X203014834Y-106319023D01*
X203157691Y-106319023D02*
X203157691Y-105819023D01*
X203157691Y-105819023D02*
X203110072Y-105890452D01*
X203110072Y-105890452D02*
X203062453Y-105938071D01*
X203062453Y-105938071D02*
X203014834Y-105961880D01*
X203491024Y-105866642D02*
X203514833Y-105842833D01*
X203514833Y-105842833D02*
X203562452Y-105819023D01*
X203562452Y-105819023D02*
X203681500Y-105819023D01*
X203681500Y-105819023D02*
X203729119Y-105842833D01*
X203729119Y-105842833D02*
X203752928Y-105866642D01*
X203752928Y-105866642D02*
X203776738Y-105914261D01*
X203776738Y-105914261D02*
X203776738Y-105961880D01*
X203776738Y-105961880D02*
X203752928Y-106033309D01*
X203752928Y-106033309D02*
X203467214Y-106319023D01*
X203467214Y-106319023D02*
X203776738Y-106319023D01*
X181153333Y-177844809D02*
X181153333Y-177344809D01*
X181153333Y-177344809D02*
X181320000Y-177701952D01*
X181320000Y-177701952D02*
X181486666Y-177344809D01*
X181486666Y-177344809D02*
X181486666Y-177844809D01*
X181724762Y-177844809D02*
X181724762Y-177344809D01*
X181724762Y-177582904D02*
X182010476Y-177582904D01*
X182010476Y-177844809D02*
X182010476Y-177344809D01*
X182510477Y-177844809D02*
X182224763Y-177844809D01*
X182367620Y-177844809D02*
X182367620Y-177344809D01*
X182367620Y-177344809D02*
X182320001Y-177416238D01*
X182320001Y-177416238D02*
X182272382Y-177463857D01*
X182272382Y-177463857D02*
X182224763Y-177487666D01*
X228673333Y-177804809D02*
X228673333Y-177304809D01*
X228673333Y-177304809D02*
X228840000Y-177661952D01*
X228840000Y-177661952D02*
X229006666Y-177304809D01*
X229006666Y-177304809D02*
X229006666Y-177804809D01*
X229244762Y-177804809D02*
X229244762Y-177304809D01*
X229244762Y-177542904D02*
X229530476Y-177542904D01*
X229530476Y-177804809D02*
X229530476Y-177304809D01*
X229744763Y-177352428D02*
X229768572Y-177328619D01*
X229768572Y-177328619D02*
X229816191Y-177304809D01*
X229816191Y-177304809D02*
X229935239Y-177304809D01*
X229935239Y-177304809D02*
X229982858Y-177328619D01*
X229982858Y-177328619D02*
X230006667Y-177352428D01*
X230006667Y-177352428D02*
X230030477Y-177400047D01*
X230030477Y-177400047D02*
X230030477Y-177447666D01*
X230030477Y-177447666D02*
X230006667Y-177519095D01*
X230006667Y-177519095D02*
X229720953Y-177804809D01*
X229720953Y-177804809D02*
X230030477Y-177804809D01*
D11*
X182660966Y-91701833D02*
X183660966Y-91701833D01*
X183565728Y-92130404D02*
X183613347Y-92178023D01*
X183613347Y-92178023D02*
X183660966Y-92273261D01*
X183660966Y-92273261D02*
X183660966Y-92511356D01*
X183660966Y-92511356D02*
X183613347Y-92606594D01*
X183613347Y-92606594D02*
X183565728Y-92654213D01*
X183565728Y-92654213D02*
X183470490Y-92701832D01*
X183470490Y-92701832D02*
X183375252Y-92701832D01*
X183375252Y-92701832D02*
X183232395Y-92654213D01*
X183232395Y-92654213D02*
X182660966Y-92082785D01*
X182660966Y-92082785D02*
X182660966Y-92701832D01*
X182756205Y-93701832D02*
X182708586Y-93654213D01*
X182708586Y-93654213D02*
X182660966Y-93511356D01*
X182660966Y-93511356D02*
X182660966Y-93416118D01*
X182660966Y-93416118D02*
X182708586Y-93273261D01*
X182708586Y-93273261D02*
X182803824Y-93178023D01*
X182803824Y-93178023D02*
X182899062Y-93130404D01*
X182899062Y-93130404D02*
X183089538Y-93082785D01*
X183089538Y-93082785D02*
X183232395Y-93082785D01*
X183232395Y-93082785D02*
X183422871Y-93130404D01*
X183422871Y-93130404D02*
X183518109Y-93178023D01*
X183518109Y-93178023D02*
X183613347Y-93273261D01*
X183613347Y-93273261D02*
X183660966Y-93416118D01*
X183660966Y-93416118D02*
X183660966Y-93511356D01*
X183660966Y-93511356D02*
X183613347Y-93654213D01*
X183613347Y-93654213D02*
X183565728Y-93701832D01*
X183660966Y-94035166D02*
X183660966Y-94654213D01*
X183660966Y-94654213D02*
X183280014Y-94320880D01*
X183280014Y-94320880D02*
X183280014Y-94463737D01*
X183280014Y-94463737D02*
X183232395Y-94558975D01*
X183232395Y-94558975D02*
X183184776Y-94606594D01*
X183184776Y-94606594D02*
X183089538Y-94654213D01*
X183089538Y-94654213D02*
X182851443Y-94654213D01*
X182851443Y-94654213D02*
X182756205Y-94606594D01*
X182756205Y-94606594D02*
X182708586Y-94558975D01*
X182708586Y-94558975D02*
X182660966Y-94463737D01*
X182660966Y-94463737D02*
X182660966Y-94178023D01*
X182660966Y-94178023D02*
X182708586Y-94082785D01*
X182708586Y-94082785D02*
X182756205Y-94035166D01*
X227200605Y-157752308D02*
X228010128Y-157752308D01*
X228010128Y-157752308D02*
X228105366Y-157704689D01*
X228105366Y-157704689D02*
X228152986Y-157657070D01*
X228152986Y-157657070D02*
X228200605Y-157561832D01*
X228200605Y-157561832D02*
X228200605Y-157371356D01*
X228200605Y-157371356D02*
X228152986Y-157276118D01*
X228152986Y-157276118D02*
X228105366Y-157228499D01*
X228105366Y-157228499D02*
X228010128Y-157180880D01*
X228010128Y-157180880D02*
X227200605Y-157180880D01*
X228152986Y-156752308D02*
X228200605Y-156609451D01*
X228200605Y-156609451D02*
X228200605Y-156371356D01*
X228200605Y-156371356D02*
X228152986Y-156276118D01*
X228152986Y-156276118D02*
X228105366Y-156228499D01*
X228105366Y-156228499D02*
X228010128Y-156180880D01*
X228010128Y-156180880D02*
X227914890Y-156180880D01*
X227914890Y-156180880D02*
X227819652Y-156228499D01*
X227819652Y-156228499D02*
X227772033Y-156276118D01*
X227772033Y-156276118D02*
X227724414Y-156371356D01*
X227724414Y-156371356D02*
X227676795Y-156561832D01*
X227676795Y-156561832D02*
X227629176Y-156657070D01*
X227629176Y-156657070D02*
X227581557Y-156704689D01*
X227581557Y-156704689D02*
X227486319Y-156752308D01*
X227486319Y-156752308D02*
X227391081Y-156752308D01*
X227391081Y-156752308D02*
X227295843Y-156704689D01*
X227295843Y-156704689D02*
X227248224Y-156657070D01*
X227248224Y-156657070D02*
X227200605Y-156561832D01*
X227200605Y-156561832D02*
X227200605Y-156323737D01*
X227200605Y-156323737D02*
X227248224Y-156180880D01*
X227676795Y-155418975D02*
X227724414Y-155276118D01*
X227724414Y-155276118D02*
X227772033Y-155228499D01*
X227772033Y-155228499D02*
X227867271Y-155180880D01*
X227867271Y-155180880D02*
X228010128Y-155180880D01*
X228010128Y-155180880D02*
X228105366Y-155228499D01*
X228105366Y-155228499D02*
X228152986Y-155276118D01*
X228152986Y-155276118D02*
X228200605Y-155371356D01*
X228200605Y-155371356D02*
X228200605Y-155752308D01*
X228200605Y-155752308D02*
X227200605Y-155752308D01*
X227200605Y-155752308D02*
X227200605Y-155418975D01*
X227200605Y-155418975D02*
X227248224Y-155323737D01*
X227248224Y-155323737D02*
X227295843Y-155276118D01*
X227295843Y-155276118D02*
X227391081Y-155228499D01*
X227391081Y-155228499D02*
X227486319Y-155228499D01*
X227486319Y-155228499D02*
X227581557Y-155276118D01*
X227581557Y-155276118D02*
X227629176Y-155323737D01*
X227629176Y-155323737D02*
X227676795Y-155418975D01*
X227676795Y-155418975D02*
X227676795Y-155752308D01*
X228200605Y-154228499D02*
X228200605Y-154799927D01*
X228200605Y-154514213D02*
X227200605Y-154514213D01*
X227200605Y-154514213D02*
X227343462Y-154609451D01*
X227343462Y-154609451D02*
X227438700Y-154704689D01*
X227438700Y-154704689D02*
X227486319Y-154799927D01*
D13*
X207512452Y-106191404D02*
X207488643Y-106215214D01*
X207488643Y-106215214D02*
X207417214Y-106239023D01*
X207417214Y-106239023D02*
X207369595Y-106239023D01*
X207369595Y-106239023D02*
X207298167Y-106215214D01*
X207298167Y-106215214D02*
X207250548Y-106167594D01*
X207250548Y-106167594D02*
X207226738Y-106119975D01*
X207226738Y-106119975D02*
X207202929Y-106024737D01*
X207202929Y-106024737D02*
X207202929Y-105953309D01*
X207202929Y-105953309D02*
X207226738Y-105858071D01*
X207226738Y-105858071D02*
X207250548Y-105810452D01*
X207250548Y-105810452D02*
X207298167Y-105762833D01*
X207298167Y-105762833D02*
X207369595Y-105739023D01*
X207369595Y-105739023D02*
X207417214Y-105739023D01*
X207417214Y-105739023D02*
X207488643Y-105762833D01*
X207488643Y-105762833D02*
X207512452Y-105786642D01*
X207964833Y-105739023D02*
X207726738Y-105739023D01*
X207726738Y-105739023D02*
X207702929Y-105977118D01*
X207702929Y-105977118D02*
X207726738Y-105953309D01*
X207726738Y-105953309D02*
X207774357Y-105929499D01*
X207774357Y-105929499D02*
X207893405Y-105929499D01*
X207893405Y-105929499D02*
X207941024Y-105953309D01*
X207941024Y-105953309D02*
X207964833Y-105977118D01*
X207964833Y-105977118D02*
X207988643Y-106024737D01*
X207988643Y-106024737D02*
X207988643Y-106143785D01*
X207988643Y-106143785D02*
X207964833Y-106191404D01*
X207964833Y-106191404D02*
X207941024Y-106215214D01*
X207941024Y-106215214D02*
X207893405Y-106239023D01*
X207893405Y-106239023D02*
X207774357Y-106239023D01*
X207774357Y-106239023D02*
X207726738Y-106215214D01*
X207726738Y-106215214D02*
X207702929Y-106191404D01*
X228463333Y-85924809D02*
X228463333Y-85424809D01*
X228463333Y-85424809D02*
X228630000Y-85781952D01*
X228630000Y-85781952D02*
X228796666Y-85424809D01*
X228796666Y-85424809D02*
X228796666Y-85924809D01*
X229034762Y-85924809D02*
X229034762Y-85424809D01*
X229034762Y-85662904D02*
X229320476Y-85662904D01*
X229320476Y-85924809D02*
X229320476Y-85424809D01*
X229510953Y-85424809D02*
X229820477Y-85424809D01*
X229820477Y-85424809D02*
X229653810Y-85615285D01*
X229653810Y-85615285D02*
X229725239Y-85615285D01*
X229725239Y-85615285D02*
X229772858Y-85639095D01*
X229772858Y-85639095D02*
X229796667Y-85662904D01*
X229796667Y-85662904D02*
X229820477Y-85710523D01*
X229820477Y-85710523D02*
X229820477Y-85829571D01*
X229820477Y-85829571D02*
X229796667Y-85877190D01*
X229796667Y-85877190D02*
X229772858Y-85901000D01*
X229772858Y-85901000D02*
X229725239Y-85924809D01*
X229725239Y-85924809D02*
X229582382Y-85924809D01*
X229582382Y-85924809D02*
X229534763Y-85901000D01*
X229534763Y-85901000D02*
X229510953Y-85877190D01*
D11*
X183136205Y-146855166D02*
X183088586Y-146807547D01*
X183088586Y-146807547D02*
X183040966Y-146664690D01*
X183040966Y-146664690D02*
X183040966Y-146569452D01*
X183040966Y-146569452D02*
X183088586Y-146426595D01*
X183088586Y-146426595D02*
X183183824Y-146331357D01*
X183183824Y-146331357D02*
X183279062Y-146283738D01*
X183279062Y-146283738D02*
X183469538Y-146236119D01*
X183469538Y-146236119D02*
X183612395Y-146236119D01*
X183612395Y-146236119D02*
X183802871Y-146283738D01*
X183802871Y-146283738D02*
X183898109Y-146331357D01*
X183898109Y-146331357D02*
X183993347Y-146426595D01*
X183993347Y-146426595D02*
X184040966Y-146569452D01*
X184040966Y-146569452D02*
X184040966Y-146664690D01*
X184040966Y-146664690D02*
X183993347Y-146807547D01*
X183993347Y-146807547D02*
X183945728Y-146855166D01*
X183326681Y-147236119D02*
X183326681Y-147712309D01*
X183040966Y-147140881D02*
X184040966Y-147474214D01*
X184040966Y-147474214D02*
X183040966Y-147807547D01*
X183040966Y-148140881D02*
X184040966Y-148140881D01*
X184040966Y-148140881D02*
X183040966Y-148712309D01*
X183040966Y-148712309D02*
X184040966Y-148712309D01*
X183945728Y-149140881D02*
X183993347Y-149188500D01*
X183993347Y-149188500D02*
X184040966Y-149283738D01*
X184040966Y-149283738D02*
X184040966Y-149521833D01*
X184040966Y-149521833D02*
X183993347Y-149617071D01*
X183993347Y-149617071D02*
X183945728Y-149664690D01*
X183945728Y-149664690D02*
X183850490Y-149712309D01*
X183850490Y-149712309D02*
X183755252Y-149712309D01*
X183755252Y-149712309D02*
X183612395Y-149664690D01*
X183612395Y-149664690D02*
X183040966Y-149093262D01*
X183040966Y-149093262D02*
X183040966Y-149712309D01*
D13*
X181103333Y-85884809D02*
X181103333Y-85384809D01*
X181103333Y-85384809D02*
X181270000Y-85741952D01*
X181270000Y-85741952D02*
X181436666Y-85384809D01*
X181436666Y-85384809D02*
X181436666Y-85884809D01*
X181674762Y-85884809D02*
X181674762Y-85384809D01*
X181674762Y-85622904D02*
X181960476Y-85622904D01*
X181960476Y-85884809D02*
X181960476Y-85384809D01*
X182412858Y-85551476D02*
X182412858Y-85884809D01*
X182293810Y-85361000D02*
X182174763Y-85718142D01*
X182174763Y-85718142D02*
X182484286Y-85718142D01*
D14*
X204282380Y-147875671D02*
X204282380Y-146605671D01*
X204282380Y-147210433D02*
X205008095Y-147210433D01*
X205008095Y-147875671D02*
X205008095Y-146605671D01*
X205552380Y-146726623D02*
X205612856Y-146666147D01*
X205612856Y-146666147D02*
X205733809Y-146605671D01*
X205733809Y-146605671D02*
X206036190Y-146605671D01*
X206036190Y-146605671D02*
X206157142Y-146666147D01*
X206157142Y-146666147D02*
X206217618Y-146726623D01*
X206217618Y-146726623D02*
X206278095Y-146847575D01*
X206278095Y-146847575D02*
X206278095Y-146968528D01*
X206278095Y-146968528D02*
X206217618Y-147149956D01*
X206217618Y-147149956D02*
X205491904Y-147875671D01*
X205491904Y-147875671D02*
X206278095Y-147875671D01*
D12*
X195412030Y-141602890D02*
X195412030Y-140002890D01*
X195412030Y-140002890D02*
X196021554Y-140002890D01*
X196021554Y-140002890D02*
X196173935Y-140079080D01*
X196173935Y-140079080D02*
X196250125Y-140155271D01*
X196250125Y-140155271D02*
X196326316Y-140307652D01*
X196326316Y-140307652D02*
X196326316Y-140536223D01*
X196326316Y-140536223D02*
X196250125Y-140688604D01*
X196250125Y-140688604D02*
X196173935Y-140764795D01*
X196173935Y-140764795D02*
X196021554Y-140840985D01*
X196021554Y-140840985D02*
X195412030Y-140840985D01*
X197012030Y-141602890D02*
X197012030Y-140002890D01*
X197621554Y-140002890D02*
X198688221Y-141602890D01*
X198688221Y-140002890D02*
X197621554Y-141602890D01*
X199297745Y-141602890D02*
X199297745Y-140002890D01*
X199297745Y-140764795D02*
X200212031Y-140764795D01*
X200212031Y-141602890D02*
X200212031Y-140002890D01*
X200897744Y-141145747D02*
X201659649Y-141145747D01*
X200745363Y-141602890D02*
X201278697Y-140002890D01*
X201278697Y-140002890D02*
X201812030Y-141602890D01*
X202192983Y-140002890D02*
X202573935Y-141602890D01*
X202573935Y-141602890D02*
X202878697Y-140460033D01*
X202878697Y-140460033D02*
X203183459Y-141602890D01*
X203183459Y-141602890D02*
X203564412Y-140002890D01*
X204173935Y-141602890D02*
X204173935Y-140002890D01*
X205088221Y-141602890D02*
X204402506Y-140688604D01*
X205088221Y-140002890D02*
X204173935Y-140917176D01*
X207907269Y-141450509D02*
X207831078Y-141526700D01*
X207831078Y-141526700D02*
X207602507Y-141602890D01*
X207602507Y-141602890D02*
X207450126Y-141602890D01*
X207450126Y-141602890D02*
X207221554Y-141526700D01*
X207221554Y-141526700D02*
X207069173Y-141374319D01*
X207069173Y-141374319D02*
X206992983Y-141221938D01*
X206992983Y-141221938D02*
X206916792Y-140917176D01*
X206916792Y-140917176D02*
X206916792Y-140688604D01*
X206916792Y-140688604D02*
X206992983Y-140383842D01*
X206992983Y-140383842D02*
X207069173Y-140231461D01*
X207069173Y-140231461D02*
X207221554Y-140079080D01*
X207221554Y-140079080D02*
X207450126Y-140002890D01*
X207450126Y-140002890D02*
X207602507Y-140002890D01*
X207602507Y-140002890D02*
X207831078Y-140079080D01*
X207831078Y-140079080D02*
X207907269Y-140155271D01*
X208592983Y-140002890D02*
X208592983Y-141298128D01*
X208592983Y-141298128D02*
X208669173Y-141450509D01*
X208669173Y-141450509D02*
X208745364Y-141526700D01*
X208745364Y-141526700D02*
X208897745Y-141602890D01*
X208897745Y-141602890D02*
X209202507Y-141602890D01*
X209202507Y-141602890D02*
X209354888Y-141526700D01*
X209354888Y-141526700D02*
X209431078Y-141450509D01*
X209431078Y-141450509D02*
X209507269Y-141298128D01*
X209507269Y-141298128D02*
X209507269Y-140002890D01*
X210802506Y-140764795D02*
X211031078Y-140840985D01*
X211031078Y-140840985D02*
X211107268Y-140917176D01*
X211107268Y-140917176D02*
X211183459Y-141069557D01*
X211183459Y-141069557D02*
X211183459Y-141298128D01*
X211183459Y-141298128D02*
X211107268Y-141450509D01*
X211107268Y-141450509D02*
X211031078Y-141526700D01*
X211031078Y-141526700D02*
X210878697Y-141602890D01*
X210878697Y-141602890D02*
X210269173Y-141602890D01*
X210269173Y-141602890D02*
X210269173Y-140002890D01*
X210269173Y-140002890D02*
X210802506Y-140002890D01*
X210802506Y-140002890D02*
X210954887Y-140079080D01*
X210954887Y-140079080D02*
X211031078Y-140155271D01*
X211031078Y-140155271D02*
X211107268Y-140307652D01*
X211107268Y-140307652D02*
X211107268Y-140460033D01*
X211107268Y-140460033D02*
X211031078Y-140612414D01*
X211031078Y-140612414D02*
X210954887Y-140688604D01*
X210954887Y-140688604D02*
X210802506Y-140764795D01*
X210802506Y-140764795D02*
X210269173Y-140764795D01*
X211869173Y-140764795D02*
X212402506Y-140764795D01*
X212631078Y-141602890D02*
X211869173Y-141602890D01*
X211869173Y-141602890D02*
X211869173Y-140002890D01*
X211869173Y-140002890D02*
X212631078Y-140002890D01*
D15*
X203262466Y-111897348D02*
X202720599Y-111897348D01*
X202720599Y-112748853D02*
X202720599Y-111123253D01*
X202720599Y-111123253D02*
X203494694Y-111123253D01*
X205042884Y-112748853D02*
X204501018Y-111974758D01*
X204113970Y-112748853D02*
X204113970Y-111123253D01*
X204113970Y-111123253D02*
X204733246Y-111123253D01*
X204733246Y-111123253D02*
X204888065Y-111200663D01*
X204888065Y-111200663D02*
X204965475Y-111278072D01*
X204965475Y-111278072D02*
X205042884Y-111432891D01*
X205042884Y-111432891D02*
X205042884Y-111665120D01*
X205042884Y-111665120D02*
X204965475Y-111819939D01*
X204965475Y-111819939D02*
X204888065Y-111897348D01*
X204888065Y-111897348D02*
X204733246Y-111974758D01*
X204733246Y-111974758D02*
X204113970Y-111974758D01*
X206049208Y-111123253D02*
X206358846Y-111123253D01*
X206358846Y-111123253D02*
X206513665Y-111200663D01*
X206513665Y-111200663D02*
X206668484Y-111355482D01*
X206668484Y-111355482D02*
X206745894Y-111665120D01*
X206745894Y-111665120D02*
X206745894Y-112206986D01*
X206745894Y-112206986D02*
X206668484Y-112516624D01*
X206668484Y-112516624D02*
X206513665Y-112671444D01*
X206513665Y-112671444D02*
X206358846Y-112748853D01*
X206358846Y-112748853D02*
X206049208Y-112748853D01*
X206049208Y-112748853D02*
X205894389Y-112671444D01*
X205894389Y-112671444D02*
X205739570Y-112516624D01*
X205739570Y-112516624D02*
X205662161Y-112206986D01*
X205662161Y-112206986D02*
X205662161Y-111665120D01*
X205662161Y-111665120D02*
X205739570Y-111355482D01*
X205739570Y-111355482D02*
X205894389Y-111200663D01*
X205894389Y-111200663D02*
X206049208Y-111123253D01*
X207442580Y-112748853D02*
X207442580Y-111123253D01*
X207442580Y-111123253D02*
X208371494Y-112748853D01*
X208371494Y-112748853D02*
X208371494Y-111123253D01*
X208913362Y-111123253D02*
X209842276Y-111123253D01*
X209377819Y-112748853D02*
X209377819Y-111123253D01*
D13*
X182519047Y-162014809D02*
X182519047Y-161514809D01*
X182519047Y-161752904D02*
X182804761Y-161752904D01*
X182804761Y-162014809D02*
X182804761Y-161514809D01*
X182995238Y-161514809D02*
X183304762Y-161514809D01*
X183304762Y-161514809D02*
X183138095Y-161705285D01*
X183138095Y-161705285D02*
X183209524Y-161705285D01*
X183209524Y-161705285D02*
X183257143Y-161729095D01*
X183257143Y-161729095D02*
X183280952Y-161752904D01*
X183280952Y-161752904D02*
X183304762Y-161800523D01*
X183304762Y-161800523D02*
X183304762Y-161919571D01*
X183304762Y-161919571D02*
X183280952Y-161967190D01*
X183280952Y-161967190D02*
X183257143Y-161991000D01*
X183257143Y-161991000D02*
X183209524Y-162014809D01*
X183209524Y-162014809D02*
X183066667Y-162014809D01*
X183066667Y-162014809D02*
X183019048Y-161991000D01*
X183019048Y-161991000D02*
X182995238Y-161967190D01*
D11*
X227278224Y-97504690D02*
X227230605Y-97599928D01*
X227230605Y-97599928D02*
X227230605Y-97742785D01*
X227230605Y-97742785D02*
X227278224Y-97885642D01*
X227278224Y-97885642D02*
X227373462Y-97980880D01*
X227373462Y-97980880D02*
X227468700Y-98028499D01*
X227468700Y-98028499D02*
X227659176Y-98076118D01*
X227659176Y-98076118D02*
X227802033Y-98076118D01*
X227802033Y-98076118D02*
X227992509Y-98028499D01*
X227992509Y-98028499D02*
X228087747Y-97980880D01*
X228087747Y-97980880D02*
X228182986Y-97885642D01*
X228182986Y-97885642D02*
X228230605Y-97742785D01*
X228230605Y-97742785D02*
X228230605Y-97647547D01*
X228230605Y-97647547D02*
X228182986Y-97504690D01*
X228182986Y-97504690D02*
X228135366Y-97457071D01*
X228135366Y-97457071D02*
X227802033Y-97457071D01*
X227802033Y-97457071D02*
X227802033Y-97647547D01*
X228230605Y-97028499D02*
X227230605Y-97028499D01*
X227230605Y-97028499D02*
X227230605Y-96647547D01*
X227230605Y-96647547D02*
X227278224Y-96552309D01*
X227278224Y-96552309D02*
X227325843Y-96504690D01*
X227325843Y-96504690D02*
X227421081Y-96457071D01*
X227421081Y-96457071D02*
X227563938Y-96457071D01*
X227563938Y-96457071D02*
X227659176Y-96504690D01*
X227659176Y-96504690D02*
X227706795Y-96552309D01*
X227706795Y-96552309D02*
X227754414Y-96647547D01*
X227754414Y-96647547D02*
X227754414Y-97028499D01*
X228182986Y-96076118D02*
X228230605Y-95933261D01*
X228230605Y-95933261D02*
X228230605Y-95695166D01*
X228230605Y-95695166D02*
X228182986Y-95599928D01*
X228182986Y-95599928D02*
X228135366Y-95552309D01*
X228135366Y-95552309D02*
X228040128Y-95504690D01*
X228040128Y-95504690D02*
X227944890Y-95504690D01*
X227944890Y-95504690D02*
X227849652Y-95552309D01*
X227849652Y-95552309D02*
X227802033Y-95599928D01*
X227802033Y-95599928D02*
X227754414Y-95695166D01*
X227754414Y-95695166D02*
X227706795Y-95885642D01*
X227706795Y-95885642D02*
X227659176Y-95980880D01*
X227659176Y-95980880D02*
X227611557Y-96028499D01*
X227611557Y-96028499D02*
X227516319Y-96076118D01*
X227516319Y-96076118D02*
X227421081Y-96076118D01*
X227421081Y-96076118D02*
X227325843Y-96028499D01*
X227325843Y-96028499D02*
X227278224Y-95980880D01*
X227278224Y-95980880D02*
X227230605Y-95885642D01*
X227230605Y-95885642D02*
X227230605Y-95647547D01*
X227230605Y-95647547D02*
X227278224Y-95504690D01*
X228230605Y-94552309D02*
X228230605Y-95123737D01*
X228230605Y-94838023D02*
X227230605Y-94838023D01*
X227230605Y-94838023D02*
X227373462Y-94933261D01*
X227373462Y-94933261D02*
X227468700Y-95028499D01*
X227468700Y-95028499D02*
X227516319Y-95123737D01*
X228270605Y-123076594D02*
X227270605Y-123076594D01*
X227365843Y-122648023D02*
X227318224Y-122600404D01*
X227318224Y-122600404D02*
X227270605Y-122505166D01*
X227270605Y-122505166D02*
X227270605Y-122267071D01*
X227270605Y-122267071D02*
X227318224Y-122171833D01*
X227318224Y-122171833D02*
X227365843Y-122124214D01*
X227365843Y-122124214D02*
X227461081Y-122076595D01*
X227461081Y-122076595D02*
X227556319Y-122076595D01*
X227556319Y-122076595D02*
X227699176Y-122124214D01*
X227699176Y-122124214D02*
X228270605Y-122695642D01*
X228270605Y-122695642D02*
X228270605Y-122076595D01*
X228175366Y-121076595D02*
X228222986Y-121124214D01*
X228222986Y-121124214D02*
X228270605Y-121267071D01*
X228270605Y-121267071D02*
X228270605Y-121362309D01*
X228270605Y-121362309D02*
X228222986Y-121505166D01*
X228222986Y-121505166D02*
X228127747Y-121600404D01*
X228127747Y-121600404D02*
X228032509Y-121648023D01*
X228032509Y-121648023D02*
X227842033Y-121695642D01*
X227842033Y-121695642D02*
X227699176Y-121695642D01*
X227699176Y-121695642D02*
X227508700Y-121648023D01*
X227508700Y-121648023D02*
X227413462Y-121600404D01*
X227413462Y-121600404D02*
X227318224Y-121505166D01*
X227318224Y-121505166D02*
X227270605Y-121362309D01*
X227270605Y-121362309D02*
X227270605Y-121267071D01*
X227270605Y-121267071D02*
X227318224Y-121124214D01*
X227318224Y-121124214D02*
X227365843Y-121076595D01*
X228270605Y-120124214D02*
X228270605Y-120695642D01*
X228270605Y-120409928D02*
X227270605Y-120409928D01*
X227270605Y-120409928D02*
X227413462Y-120505166D01*
X227413462Y-120505166D02*
X227508700Y-120600404D01*
X227508700Y-120600404D02*
X227556319Y-120695642D01*
X227250605Y-145747070D02*
X227250605Y-145175642D01*
X228250605Y-145461356D02*
X227250605Y-145461356D01*
X227726795Y-144842308D02*
X227726795Y-144508975D01*
X228250605Y-144366118D02*
X228250605Y-144842308D01*
X228250605Y-144842308D02*
X227250605Y-144842308D01*
X227250605Y-144842308D02*
X227250605Y-144366118D01*
X228250605Y-143461356D02*
X228250605Y-143937546D01*
X228250605Y-143937546D02*
X227250605Y-143937546D01*
X227726795Y-143128022D02*
X227726795Y-142794689D01*
X228250605Y-142651832D02*
X228250605Y-143128022D01*
X228250605Y-143128022D02*
X227250605Y-143128022D01*
X227250605Y-143128022D02*
X227250605Y-142651832D01*
X228250605Y-142223260D02*
X227250605Y-142223260D01*
X227250605Y-142223260D02*
X227964890Y-141889927D01*
X227964890Y-141889927D02*
X227250605Y-141556594D01*
X227250605Y-141556594D02*
X228250605Y-141556594D01*
X228250605Y-140556594D02*
X228250605Y-141128022D01*
X228250605Y-140842308D02*
X227250605Y-140842308D01*
X227250605Y-140842308D02*
X227393462Y-140937546D01*
X227393462Y-140937546D02*
X227488700Y-141032784D01*
X227488700Y-141032784D02*
X227536319Y-141128022D01*
X189210072Y-95089033D02*
X189210072Y-94089033D01*
X189210072Y-94089033D02*
X189591024Y-94089033D01*
X189591024Y-94089033D02*
X189686262Y-94136652D01*
X189686262Y-94136652D02*
X189733881Y-94184271D01*
X189733881Y-94184271D02*
X189781500Y-94279509D01*
X189781500Y-94279509D02*
X189781500Y-94422366D01*
X189781500Y-94422366D02*
X189733881Y-94517604D01*
X189733881Y-94517604D02*
X189686262Y-94565223D01*
X189686262Y-94565223D02*
X189591024Y-94612842D01*
X189591024Y-94612842D02*
X189210072Y-94612842D01*
X190400548Y-94089033D02*
X190591024Y-94089033D01*
X190591024Y-94089033D02*
X190686262Y-94136652D01*
X190686262Y-94136652D02*
X190781500Y-94231890D01*
X190781500Y-94231890D02*
X190829119Y-94422366D01*
X190829119Y-94422366D02*
X190829119Y-94755699D01*
X190829119Y-94755699D02*
X190781500Y-94946175D01*
X190781500Y-94946175D02*
X190686262Y-95041414D01*
X190686262Y-95041414D02*
X190591024Y-95089033D01*
X190591024Y-95089033D02*
X190400548Y-95089033D01*
X190400548Y-95089033D02*
X190305310Y-95041414D01*
X190305310Y-95041414D02*
X190210072Y-94946175D01*
X190210072Y-94946175D02*
X190162453Y-94755699D01*
X190162453Y-94755699D02*
X190162453Y-94422366D01*
X190162453Y-94422366D02*
X190210072Y-94231890D01*
X190210072Y-94231890D02*
X190305310Y-94136652D01*
X190305310Y-94136652D02*
X190400548Y-94089033D01*
X191162453Y-94089033D02*
X191400548Y-95089033D01*
X191400548Y-95089033D02*
X191591024Y-94374747D01*
X191591024Y-94374747D02*
X191781500Y-95089033D01*
X191781500Y-95089033D02*
X192019596Y-94089033D01*
X192400548Y-94565223D02*
X192733881Y-94565223D01*
X192876738Y-95089033D02*
X192400548Y-95089033D01*
X192400548Y-95089033D02*
X192400548Y-94089033D01*
X192400548Y-94089033D02*
X192876738Y-94089033D01*
X193876738Y-95089033D02*
X193543405Y-94612842D01*
X193305310Y-95089033D02*
X193305310Y-94089033D01*
X193305310Y-94089033D02*
X193686262Y-94089033D01*
X193686262Y-94089033D02*
X193781500Y-94136652D01*
X193781500Y-94136652D02*
X193829119Y-94184271D01*
X193829119Y-94184271D02*
X193876738Y-94279509D01*
X193876738Y-94279509D02*
X193876738Y-94422366D01*
X193876738Y-94422366D02*
X193829119Y-94517604D01*
X193829119Y-94517604D02*
X193781500Y-94565223D01*
X193781500Y-94565223D02*
X193686262Y-94612842D01*
X193686262Y-94612842D02*
X193305310Y-94612842D01*
X194829119Y-95089033D02*
X194257691Y-95089033D01*
X194543405Y-95089033D02*
X194543405Y-94089033D01*
X194543405Y-94089033D02*
X194448167Y-94231890D01*
X194448167Y-94231890D02*
X194352929Y-94327128D01*
X194352929Y-94327128D02*
X194257691Y-94374747D01*
X182500966Y-101461833D02*
X183500966Y-101461833D01*
X183405728Y-101890404D02*
X183453347Y-101938023D01*
X183453347Y-101938023D02*
X183500966Y-102033261D01*
X183500966Y-102033261D02*
X183500966Y-102271356D01*
X183500966Y-102271356D02*
X183453347Y-102366594D01*
X183453347Y-102366594D02*
X183405728Y-102414213D01*
X183405728Y-102414213D02*
X183310490Y-102461832D01*
X183310490Y-102461832D02*
X183215252Y-102461832D01*
X183215252Y-102461832D02*
X183072395Y-102414213D01*
X183072395Y-102414213D02*
X182500966Y-101842785D01*
X182500966Y-101842785D02*
X182500966Y-102461832D01*
X182596205Y-103461832D02*
X182548586Y-103414213D01*
X182548586Y-103414213D02*
X182500966Y-103271356D01*
X182500966Y-103271356D02*
X182500966Y-103176118D01*
X182500966Y-103176118D02*
X182548586Y-103033261D01*
X182548586Y-103033261D02*
X182643824Y-102938023D01*
X182643824Y-102938023D02*
X182739062Y-102890404D01*
X182739062Y-102890404D02*
X182929538Y-102842785D01*
X182929538Y-102842785D02*
X183072395Y-102842785D01*
X183072395Y-102842785D02*
X183262871Y-102890404D01*
X183262871Y-102890404D02*
X183358109Y-102938023D01*
X183358109Y-102938023D02*
X183453347Y-103033261D01*
X183453347Y-103033261D02*
X183500966Y-103176118D01*
X183500966Y-103176118D02*
X183500966Y-103271356D01*
X183500966Y-103271356D02*
X183453347Y-103414213D01*
X183453347Y-103414213D02*
X183405728Y-103461832D01*
X183405728Y-103842785D02*
X183453347Y-103890404D01*
X183453347Y-103890404D02*
X183500966Y-103985642D01*
X183500966Y-103985642D02*
X183500966Y-104223737D01*
X183500966Y-104223737D02*
X183453347Y-104318975D01*
X183453347Y-104318975D02*
X183405728Y-104366594D01*
X183405728Y-104366594D02*
X183310490Y-104414213D01*
X183310490Y-104414213D02*
X183215252Y-104414213D01*
X183215252Y-104414213D02*
X183072395Y-104366594D01*
X183072395Y-104366594D02*
X182500966Y-103795166D01*
X182500966Y-103795166D02*
X182500966Y-104414213D01*
X228355366Y-132933261D02*
X228402986Y-132980880D01*
X228402986Y-132980880D02*
X228450605Y-133123737D01*
X228450605Y-133123737D02*
X228450605Y-133218975D01*
X228450605Y-133218975D02*
X228402986Y-133361832D01*
X228402986Y-133361832D02*
X228307747Y-133457070D01*
X228307747Y-133457070D02*
X228212509Y-133504689D01*
X228212509Y-133504689D02*
X228022033Y-133552308D01*
X228022033Y-133552308D02*
X227879176Y-133552308D01*
X227879176Y-133552308D02*
X227688700Y-133504689D01*
X227688700Y-133504689D02*
X227593462Y-133457070D01*
X227593462Y-133457070D02*
X227498224Y-133361832D01*
X227498224Y-133361832D02*
X227450605Y-133218975D01*
X227450605Y-133218975D02*
X227450605Y-133123737D01*
X227450605Y-133123737D02*
X227498224Y-132980880D01*
X227498224Y-132980880D02*
X227545843Y-132933261D01*
X228164890Y-132552308D02*
X228164890Y-132076118D01*
X228450605Y-132647546D02*
X227450605Y-132314213D01*
X227450605Y-132314213D02*
X228450605Y-131980880D01*
X228450605Y-131647546D02*
X227450605Y-131647546D01*
X227450605Y-131647546D02*
X228450605Y-131076118D01*
X228450605Y-131076118D02*
X227450605Y-131076118D01*
X228450605Y-130076118D02*
X228450605Y-130647546D01*
X228450605Y-130361832D02*
X227450605Y-130361832D01*
X227450605Y-130361832D02*
X227593462Y-130457070D01*
X227593462Y-130457070D02*
X227688700Y-130552308D01*
X227688700Y-130552308D02*
X227736319Y-130647546D01*
D13*
X225424833Y-173179023D02*
X225424833Y-172679023D01*
X225424833Y-172917118D02*
X225710547Y-172917118D01*
X225710547Y-173179023D02*
X225710547Y-172679023D01*
X226210548Y-173179023D02*
X225924834Y-173179023D01*
X226067691Y-173179023D02*
X226067691Y-172679023D01*
X226067691Y-172679023D02*
X226020072Y-172750452D01*
X226020072Y-172750452D02*
X225972453Y-172798071D01*
X225972453Y-172798071D02*
X225924834Y-172821880D01*
%TO.C,CAN3*%
D16*
X180475786Y-133924214D02*
X180475786Y-135724214D01*
X179025786Y-133924214D02*
X180475786Y-133924214D01*
X176205786Y-135194214D02*
X176205786Y-141124214D01*
X180475786Y-135724214D02*
X181465786Y-135724214D01*
X180475786Y-142394214D02*
X180475786Y-140594214D01*
X179025786Y-142394214D02*
X180475786Y-142394214D01*
%TO.C,TELEM2*%
X180475786Y-119759214D02*
X180475786Y-117959214D01*
X180475786Y-110589214D02*
X181465786Y-110589214D01*
X180475786Y-108789214D02*
X180475786Y-110589214D01*
X179025786Y-119759214D02*
X180475786Y-119759214D01*
X179025786Y-108789214D02*
X180475786Y-108789214D01*
X176205786Y-110059214D02*
X176205786Y-118489214D01*
%TO.C,POWER2*%
X210650000Y-89360000D02*
X210650000Y-91060000D01*
X210650000Y-91060000D02*
X213000000Y-91060000D01*
X224520000Y-91060000D02*
X224520000Y-93000000D01*
X224950000Y-83890000D02*
X212570000Y-83890000D01*
X226870000Y-89360000D02*
X226870000Y-91060000D01*
X226870000Y-91060000D02*
X224520000Y-91060000D01*
%TO.C,C8*%
D12*
X201705000Y-89650000D02*
X201705000Y-95650000D01*
X204855000Y-95650000D02*
X204855000Y-89050000D01*
%TO.C,C10*%
X206045000Y-89630000D02*
X206045000Y-95630000D01*
X209195000Y-95630000D02*
X209195000Y-89030000D01*
%TO.C,GPS2*%
D16*
X230360000Y-104695000D02*
X230360000Y-106495000D01*
X230360000Y-113865000D02*
X229370000Y-113865000D01*
X230360000Y-115665000D02*
X230360000Y-113865000D01*
X231810000Y-104695000D02*
X230360000Y-104695000D01*
X231810000Y-115665000D02*
X230360000Y-115665000D01*
X234630000Y-114395000D02*
X234630000Y-105965000D01*
%TO.C,ADC1*%
X230300000Y-163190000D02*
X230300000Y-164990000D01*
X230300000Y-168610000D02*
X229310000Y-168610000D01*
X230300000Y-170410000D02*
X230300000Y-168610000D01*
X231750000Y-163190000D02*
X230300000Y-163190000D01*
X231750000Y-170410000D02*
X230300000Y-170410000D01*
X234570000Y-169140000D02*
X234570000Y-164460000D01*
%TO.C,C12*%
D12*
X201650786Y-98554214D02*
X201650786Y-105154214D01*
X204800786Y-104554214D02*
X204800786Y-98554214D01*
%TO.C,I2C3*%
D16*
X176140000Y-90210000D02*
X176140000Y-96140000D01*
X178960000Y-88940000D02*
X180410000Y-88940000D01*
X178960000Y-97410000D02*
X180410000Y-97410000D01*
X180410000Y-88940000D02*
X180410000Y-90740000D01*
X180410000Y-90740000D02*
X181400000Y-90740000D01*
X180410000Y-97410000D02*
X180410000Y-95610000D01*
%TO.C,USB1*%
X230300000Y-150500000D02*
X230300000Y-152300000D01*
X230300000Y-159670000D02*
X229310000Y-159670000D01*
X230300000Y-161470000D02*
X230300000Y-159670000D01*
X231750000Y-150500000D02*
X230300000Y-150500000D01*
X231750000Y-161470000D02*
X230300000Y-161470000D01*
X234570000Y-160200000D02*
X234570000Y-151770000D01*
%TO.C,C5*%
D12*
X206070786Y-98574214D02*
X206070786Y-105174214D01*
X209220786Y-104574214D02*
X209220786Y-98574214D01*
%TO.C,CAN2*%
D16*
X176200000Y-145040000D02*
X176200000Y-150970000D01*
X179020000Y-143770000D02*
X180470000Y-143770000D01*
X179020000Y-152240000D02*
X180470000Y-152240000D01*
X180470000Y-143770000D02*
X180470000Y-145570000D01*
X180470000Y-145570000D02*
X181460000Y-145570000D01*
X180470000Y-152240000D02*
X180470000Y-150440000D01*
%TO.C,H2*%
D17*
X186170100Y-143486400D02*
X186170100Y-109086400D01*
X188170100Y-107086400D02*
X222570100Y-107086400D01*
X188170100Y-145486400D02*
X222570100Y-145486400D01*
D18*
X205650200Y-113786300D02*
X206650200Y-113786300D01*
X205650200Y-116096500D02*
X205650200Y-113786300D01*
X205650200Y-138786200D02*
X205650200Y-136476500D01*
X206150000Y-115786300D02*
X206150000Y-136786300D01*
X206150000Y-136786300D02*
X206650200Y-137286400D01*
X206650200Y-115286400D02*
X206150000Y-115786300D01*
X206650200Y-137286400D02*
X209150000Y-137286400D01*
X206650200Y-138786200D02*
X205650200Y-138786200D01*
X209150000Y-113786300D02*
X210150000Y-113786300D01*
X209150000Y-115286400D02*
X206650200Y-115286400D01*
X209150000Y-137286400D02*
X209650200Y-136786300D01*
X209150000Y-138786200D02*
X210150000Y-138786200D01*
X209650200Y-115786300D02*
X209150000Y-115286400D01*
X209650200Y-136786300D02*
X209650200Y-115786300D01*
X210150000Y-113786300D02*
X210150000Y-116096500D01*
X210150000Y-138786200D02*
X210150000Y-136466500D01*
D17*
X224570100Y-143486400D02*
X224570100Y-109086400D01*
X186170100Y-109086400D02*
G75*
G02*
X188170100Y-107086400I1999999J1D01*
G01*
X188170100Y-145486400D02*
G75*
G02*
X186170100Y-143486400I-1J1999999D01*
G01*
X222570100Y-107086400D02*
G75*
G02*
X224570100Y-109086400I0J-2000000D01*
G01*
X224570100Y-143486400D02*
G75*
G02*
X222570100Y-145486400I-2000000J0D01*
G01*
%TO.C,H3*%
D12*
X181610000Y-153180000D02*
X184150000Y-153180000D01*
X181610000Y-160800000D02*
X181610000Y-153180000D01*
X184150000Y-160800000D02*
X181610000Y-160800000D01*
X184150000Y-160800000D02*
X184150000Y-153180000D01*
X185750000Y-152530000D02*
G75*
G02*
X185550000Y-152530000I-100000J0D01*
G01*
X185550000Y-152530000D02*
G75*
G02*
X185750000Y-152530000I100000J0D01*
G01*
%TO.C,GPS1*%
D16*
X230310000Y-89585000D02*
X230310000Y-91385000D01*
X230310000Y-101255000D02*
X229320000Y-101255000D01*
X230310000Y-103055000D02*
X230310000Y-101255000D01*
X231760000Y-89585000D02*
X230310000Y-89585000D01*
X231760000Y-103055000D02*
X230310000Y-103055000D01*
X234580000Y-101785000D02*
X234580000Y-90855000D01*
%TO.C,I2C1*%
X230420000Y-117405000D02*
X230420000Y-119205000D01*
X230420000Y-124075000D02*
X229430000Y-124075000D01*
X230420000Y-125875000D02*
X230420000Y-124075000D01*
X231870000Y-117405000D02*
X230420000Y-117405000D01*
X231870000Y-125875000D02*
X230420000Y-125875000D01*
X234690000Y-124605000D02*
X234690000Y-118675000D01*
%TO.C,TELEM1*%
X230440000Y-137650000D02*
X230440000Y-139450000D01*
X230440000Y-146820000D02*
X229450000Y-146820000D01*
X230440000Y-148620000D02*
X230440000Y-146820000D01*
X231890000Y-137650000D02*
X230440000Y-137650000D01*
X231890000Y-148620000D02*
X230440000Y-148620000D01*
X234710000Y-147350000D02*
X234710000Y-138920000D01*
%TO.C,POWER1*%
X183910000Y-89320000D02*
X183910000Y-91020000D01*
X183910000Y-91020000D02*
X186260000Y-91020000D01*
X197780000Y-91020000D02*
X197780000Y-92960000D01*
X198210000Y-83850000D02*
X185830000Y-83850000D01*
X200130000Y-89320000D02*
X200130000Y-91020000D01*
X200130000Y-91020000D02*
X197780000Y-91020000D01*
%TO.C,I2C2*%
X176150000Y-100035000D02*
X176150000Y-105965000D01*
X178970000Y-98765000D02*
X180420000Y-98765000D01*
X178970000Y-107235000D02*
X180420000Y-107235000D01*
X180420000Y-98765000D02*
X180420000Y-100565000D01*
X180420000Y-100565000D02*
X181410000Y-100565000D01*
X180420000Y-107235000D02*
X180420000Y-105435000D01*
%TO.C,CAN1*%
X230470000Y-127580000D02*
X230470000Y-129380000D01*
X230470000Y-134250000D02*
X229480000Y-134250000D01*
X230470000Y-136050000D02*
X230470000Y-134250000D01*
X231920000Y-127580000D02*
X230470000Y-127580000D01*
X231920000Y-136050000D02*
X230470000Y-136050000D01*
X234740000Y-134780000D02*
X234740000Y-128850000D01*
%TO.C,H1*%
D12*
X186460000Y-176120000D02*
X186460000Y-173580000D01*
X187730000Y-176120000D02*
X187730000Y-181960000D01*
X190270000Y-176120000D02*
X190270000Y-181960000D01*
X192810000Y-176120000D02*
X192810000Y-181960000D01*
X195350000Y-176120000D02*
X195350000Y-181960000D01*
X197890000Y-176120000D02*
X197890000Y-181960000D01*
X200430000Y-176120000D02*
X200430000Y-181960000D01*
X202970000Y-176120000D02*
X202970000Y-181960000D01*
X205510000Y-176120000D02*
X205510000Y-181960000D01*
X208050000Y-176120000D02*
X208050000Y-181960000D01*
X210590000Y-176120000D02*
X210590000Y-181960000D01*
X213130000Y-176120000D02*
X213130000Y-181960000D01*
X215670000Y-176120000D02*
X215670000Y-181960000D01*
X218210000Y-176120000D02*
X218210000Y-181960000D01*
X220750000Y-176120000D02*
X220750000Y-181960000D01*
X223290000Y-176120000D02*
X223290000Y-181960000D01*
X224560000Y-166980000D02*
X224560000Y-176120000D01*
X224560000Y-176120000D02*
X186460000Y-176120000D01*
%TD*%
M02*
